<?xml version="1.0" encoding="UTF-8" standalone="no"?>
<svg xmlns="http://www.w3.org/2000/svg" xmlns:xlink="http://www.w3.org/1999/xlink" xmlns:serif="http://www.serif.com/" width="100%" height="100%" viewBox="0 0 79 79" version="1.1" xml:space="preserve" style="fill-rule:evenodd;clip-rule:evenodd;stroke-linejoin:round;stroke-miterlimit:2;">
  <path id="Shape-1196" serif:id="Shape 1196" d="M61.942,10.8c-0.021,-0.821 0.301,-1.728 -0.563,-2.221c-0.351,-0.2 -1.01,-0.198 -1.359,0.004c-0.862,0.496 -0.536,1.401 -0.556,2.217l2.478,0Zm-10.058,0.009c-0.051,-0.89 0.289,-1.851 -0.693,-2.297c-0.354,-0.161 -0.971,-0.115 -1.293,0.099c-0.813,0.54 -0.501,1.412 -0.489,2.198l2.475,-0Zm-25.167,-0.007l2.502,-0c-0.072,-0.816 0.291,-1.731 -0.585,-2.223c-0.354,-0.198 -1.009,-0.198 -1.36,0.004c-0.862,0.495 -0.535,1.4 -0.557,2.219m-7.597,0.001c-0.021,-0.824 0.301,-1.73 -0.563,-2.224c-0.351,-0.2 -1.009,-0.198 -1.359,0.004c-0.862,0.496 -0.536,1.4 -0.556,2.22l2.478,-0Zm35.321,32.71l2.421,-0l0,-2.422l-2.421,0l-0,2.422Zm-30.298,-2.421l-2.436,0l-0,2.421l2.436,-0l-0,-2.421Zm17.632,-27.677l-4.939,-0l-0,2.421l4.939,-0l0,-2.421Zm-1.279,-10.061l-2.422,0l-0,7.453l2.422,-0l0,-7.453Zm-8.725,40.159l15.013,-0l0,-2.423l-15.013,0l-0,2.423Zm25.118,2.572c-1.216,0 -2.343,0.007 -3.47,-0.002c-1.078,-0.009 -1.525,-0.454 -1.53,-1.535c-0.009,-1.468 -0.007,-2.936 -0.002,-4.403c0.004,-1.184 0.429,-1.606 1.613,-1.611c1.12,-0.005 2.238,-0 3.371,-0l0,-2.457l-7.461,0l0,12.473l7.479,-0l0,-2.465Zm-35.185,-10.035l-0,2.484c1.191,-0 2.34,-0.008 3.488,0.001c1.033,0.009 1.494,0.46 1.502,1.484c0.012,1.468 0.006,2.936 0.002,4.404c-0.003,1.237 -0.418,1.656 -1.644,1.661c-1.116,0.004 -2.233,0.001 -3.329,0.001l-0,2.473l7.439,-0l-0,-12.508l-7.458,0Zm15.123,2.42l4.942,0l0,-15.005l-4.942,0l-0,15.005Zm-22.688,-17.612l50.279,0l-0,-2.425l-50.279,0l0,2.425Zm45.293,2.615l-15.052,0l0,14.999l2.469,0c-0,-1.081 -0.002,-2.102 -0,-3.123c0.001,-1.502 0.346,-1.85 1.844,-1.85c1.88,-0.001 3.761,-0 5.712,-0l-0,-2.026c0.002,-2.601 1.227,-3.98 3.801,-4.271c0.688,-0.077 1.158,-0.44 1.21,-1.124c0.065,-0.852 0.016,-1.714 0.016,-2.605m-35.256,10.026c2.034,-0 3.97,-0.003 5.906,0c1.233,0.003 1.648,0.419 1.652,1.652c0.004,1.115 0.001,2.23 0.001,3.343l2.473,0l-0,-15.013l-15.068,0c0,0.73 -0.003,1.407 0,2.084c0.006,1.166 0.359,1.55 1.507,1.646c2.006,0.17 3.483,1.733 3.526,3.747c0.017,0.809 0.003,1.62 0.003,2.541m17.579,12.651l-4.94,-0l-0,30.108l4.94,0l0,-30.108Zm-7.539,30.171l-0,-30.197l-2.481,0c-0,1.112 0.003,2.228 -0.001,3.344c-0.004,1.232 -0.422,1.65 -1.656,1.651c-3.096,0.003 -6.191,0.003 -9.287,-0c-1.232,-0.001 -1.65,-0.419 -1.65,-1.653c-0.003,-4.694 -0.002,-9.387 -0.001,-14.081c0,-1.552 0.319,-1.87 1.889,-1.886c0.179,-0.003 0.359,-0 0.62,-0c-0,-0.911 0.043,-1.77 -0.013,-2.622c-0.046,-0.687 -0.497,-1.066 -1.185,-1.15c-2.651,-0.327 -3.829,-1.66 -3.83,-4.327l-0,-1.971c-1.172,0 -2.29,0.003 -3.409,-0.001c-1.19,-0.005 -1.623,-0.428 -1.627,-1.597c-0.006,-1.416 -0.004,-2.831 -0.001,-4.247c0.002,-1.298 0.4,-1.703 1.675,-1.707c1.095,-0.002 2.19,-0.001 3.323,-0.001l-0,-2.518c-0.379,-0 -0.761,0.013 -1.141,-0.004c-0.838,-0.036 -1.311,-0.496 -1.332,-1.332c-0.022,-0.891 -0.037,-1.785 0.007,-2.674c0.097,-1.962 1.765,-3.525 3.732,-3.539c2.006,-0.014 3.697,1.553 3.798,3.553c0.04,0.81 0.017,1.625 0.011,2.437c-0.008,1.12 -0.451,1.547 -1.588,1.56c-0.282,0.003 -0.565,0 -0.888,0l0,2.458l7.465,0l0,-2.46c-0.406,-0 -0.793,0.018 -1.177,-0.004c-0.788,-0.045 -1.26,-0.507 -1.283,-1.3c-0.025,-0.891 -0.035,-1.784 0.004,-2.674c0.085,-1.966 1.739,-3.542 3.702,-3.57c1.977,-0.028 3.682,1.481 3.82,3.442c0.066,0.94 0.041,1.888 0.012,2.831c-0.024,0.781 -0.515,1.232 -1.312,1.272c-0.364,0.019 -0.729,0.004 -1.145,0.004l0,2.475l4.986,0c0,-1.072 -0.001,-2.161 0.001,-3.249c0.002,-1.158 0.153,-1.38 1.259,-1.832c0,-2.734 -0.002,-5.485 0,-8.236c0.001,-1.349 0.388,-1.741 1.719,-1.743c1.39,-0.002 2.781,-0.003 4.171,0c1.242,0.003 1.664,0.416 1.666,1.639c0.004,2.778 0.001,5.556 0.001,8.38c1.045,0.195 1.309,0.894 1.269,1.848c-0.043,1.043 -0.01,2.089 -0.01,3.185l4.997,0l-0,-2.467c-0.372,-0 -0.752,0.013 -1.132,-0.004c-0.84,-0.035 -1.316,-0.492 -1.338,-1.325c-0.023,-0.891 -0.037,-1.784 0.006,-2.674c0.095,-1.963 1.759,-3.529 3.725,-3.546c2.007,-0.017 3.702,1.547 3.804,3.546c0.042,0.81 0.019,1.625 0.012,2.437c-0.008,1.124 -0.447,1.554 -1.581,1.567c-0.283,0.003 -0.566,0 -0.892,0l-0,2.455l7.461,0l-0,-2.457c-0.398,-0 -0.784,0.018 -1.168,-0.003c-0.791,-0.043 -1.268,-0.503 -1.289,-1.294c-0.027,-0.917 -0.045,-1.838 0.008,-2.752c0.114,-1.989 1.84,-3.537 3.847,-3.498c1.964,0.038 3.598,1.617 3.681,3.592c0.035,0.811 0.018,1.625 0.009,2.437c-0.011,1.068 -0.463,1.506 -1.55,1.52c-0.286,0.003 -0.573,0 -0.912,0l-0,2.517c1.124,0 2.243,-0.003 3.362,0.001c1.186,0.007 1.615,0.429 1.619,1.607c0.006,1.467 0.008,2.936 -0.001,4.404c-0.006,1.082 -0.452,1.53 -1.528,1.539c-1.126,0.009 -2.254,0.002 -3.507,0.002c0,0.744 0.002,1.465 -0.001,2.186c-0.007,2.409 -1.346,3.882 -3.731,4.107c-0.848,0.08 -1.28,0.518 -1.3,1.369c-0.02,0.779 -0.005,1.559 -0.005,2.408c0.333,-0 0.589,-0.003 0.845,-0c1.274,0.008 1.672,0.411 1.672,1.711c0.002,4.719 0.002,9.438 0.001,14.157c-0.001,1.376 -0.386,1.752 -1.792,1.753c-2.99,0.001 -5.981,0.001 -8.972,-0c-1.485,-0.001 -1.829,-0.354 -1.83,-1.869c-0.002,-1.019 -0,-2.039 -0,-3.112l-2.476,0l0,30.114l33.907,-0l0,2.513l-77.994,0l-0,-2.445l33.93,-0Z" style="fill:#f3e907;fill-rule:nonzero;"></path>
</svg>
