<?xml version="1.0" encoding="UTF-8"?>
<svg xmlns="http://www.w3.org/2000/svg" width="1200pt" height="1200pt" version="1.1" viewBox="0 0 1200 1200">
  <g fill="#fbea02">
    <path d="m132 555.12h65.367v512.88c0 6.6289 5.3711 12 12 12h779.75c6.6289 0 12-5.3711 12-12v-512.88h65.367c4.9922 0 9.4609-3.0938 11.227-7.7656 1.7656-4.6719 0.45312-9.9492-3.2969-13.246l-467.25-411.12c-4.5352-3.9844-11.32-3.9844-15.855 0l-467.24 411.12c-3.75 3.2969-5.0625 8.5781-3.2969 13.246 1.7617 4.6719 6.2305 7.7656 11.223 7.7656zm467.24-407.13 435.44 383.13h-45.562c-6.6289 0-12 5.3711-12 12v512.88h-755.75v-512.88c0-6.6289-5.3711-12-12-12h-45.562z"></path>
    <path d="m469.1 730.82 52.172 0.31641-27.023 179.94c-0.76562 5.0977 1.8047 10.113 6.3906 12.461 1.7344 0.88672 3.6094 1.3203 5.4648 1.3203 3.0664 0 6.0859-1.1719 8.3867-3.4102l261.88-255.45c3.4922-3.4023 4.5781-8.5781 2.7422-13.098-1.8359-4.5156-6.2148-7.4844-11.09-7.4922l-104.73-0.28125 68.52-161.28c1.5781-3.707 1.1836-7.957-1.0391-11.316s-5.9844-5.3789-10.008-5.3789l-224.17-0.003906c-6.1016 0-11.227 4.5781-11.922 10.637l-27.422 239.67c-0.38672 3.3867 0.68359 6.7773 2.9492 9.3281 2.25 2.5469 5.4922 4.0117 8.8945 4.0352zm38.203-239.67h195.33l-68.504 161.23c-1.5703 3.7031-1.1836 7.9453 1.0312 11.301 2.207 3.3594 5.957 5.3789 9.9844 5.3906l93.434 0.25391-215.3 210.01 23.777-158.34c0.51953-3.4414-0.48438-6.9375-2.7461-9.5859-2.2617-2.6406-5.5586-4.1719-9.043-4.1953l-52.652-0.32422z"></path>
  </g>
</svg>
