<?xml version="1.0" encoding="UTF-8"?>
<svg xmlns="http://www.w3.org/2000/svg" width="1200pt" height="1200pt" version="1.1" viewBox="0 0 1200 1200">
  <g fill="#fbea02">
    <path d="m748.55 710.95-95.754-0.25781 62.988-148.28c1.582-3.707 1.1953-7.957-1.0312-11.316s-5.9766-5.3789-10.008-5.3789h-207.8c-6.0938 0-11.227 4.5781-11.918 10.637l-25.418 222.15c-0.38672 3.3867 0.67969 6.7773 2.9414 9.3281 2.2617 2.5508 5.4961 4.0156 8.9062 4.0391l47.344 0.28906-24.902 165.79c-0.76172 5.0977 1.8164 10.113 6.3984 12.461 1.7344 0.88672 3.6094 1.3203 5.4727 1.3203 3.0586 0 6.082-1.1719 8.3789-3.4102l242.74-236.78c3.4922-3.4023 4.5703-8.5781 2.7422-13.098-1.8281-4.5195-6.2109-7.4883-11.086-7.4961zm-225.61 215.27 21.656-144.2c0.51562-3.4414-0.49219-6.9375-2.7539-9.5859-2.2617-2.6406-5.5664-4.1719-9.0469-4.1953l-47.824-0.28906 22.688-198.23h178.95l-62.965 148.23c-1.582 3.7031-1.1953 7.9453 1.0195 11.301 2.2148 3.3555 5.9648 5.3789 9.9844 5.3906l84.469 0.23047z"></path>
    <path d="m131.99 1080h936c6.6328 0 12-5.3711 12-12v-789.11c0-6.6289-5.3672-12-12-12h-398.71v-112.3c0-19.078-15.527-34.598-34.605-34.598h-69.363c-19.078 0-34.605 15.52-34.605 34.602v112.3l-398.72-0.003907c-6.6328 0-12 5.3711-12 12v789.11c0 6.6289 5.3672 12 12 12zm433.32-669.98h69.363c19.078 0 34.605-15.52 34.605-34.602v-14.523h25.16c23.203 0 42.07 18.867 42.07 42.066 0 23.191-18.867 42.059-42.07 42.059h-188.91c-23.191 0-42.059-18.867-42.059-42.059 0-23.199 18.867-42.066 42.059-42.066h25.172v14.523c0 19.078 15.527 34.602 34.605 34.602zm-10.605-255.41c0-5.8438 4.7578-10.602 10.605-10.602h69.363c5.8477 0 10.605 4.7578 10.605 10.602v220.82c0 5.8398-4.7578 10.602-10.605 10.602l-69.363-0.003906c-5.8477 0-10.605-4.7578-10.605-10.602zm-410.72 136.29h386.72v45.996h-25.172c-36.422 0-66.059 29.637-66.059 66.066 0 36.426 29.637 66.059 66.059 66.059h188.91c36.434 0 66.07-29.633 66.07-66.059s-29.637-66.066-66.07-66.066h-25.16v-45.996h386.71v765.11h-912z"></path>
  </g>
</svg>
