<?xml version="1.0" encoding="UTF-8" standalone="no"?>
<svg xmlns="http://www.w3.org/2000/svg" xmlns:xlink="http://www.w3.org/1999/xlink" xmlns:serif="http://www.serif.com/" width="100%" height="100%" viewBox="0 0 78 79" version="1.1" xml:space="preserve" style="fill-rule:evenodd;clip-rule:evenodd;stroke-linejoin:round;stroke-miterlimit:2;">
  <path id="Shape-1197" serif:id="Shape 1197" d="M67.974,70.654c-0.172,2.515 -0.172,2.515 -2.589,2.515l-2.485,-0c-0,1.108 0.001,2.195 -0.001,3.282c-0.002,1.348 -0.391,1.748 -1.711,1.749c-4.718,0.002 -9.435,0.001 -14.152,0c-1.374,-0.001 -1.747,-0.384 -1.748,-1.79c-0.002,-1.044 -0.001,-2.09 -0.001,-3.187l-12.579,-0c-0,1.129 0.004,2.247 -0.001,3.365c-0.006,1.179 -0.433,1.61 -1.612,1.611c-4.796,0.003 -9.592,0.003 -14.387,-0c-1.182,-0.001 -1.605,-0.429 -1.61,-1.612c-0.005,-1.098 -0.001,-2.198 -0.001,-3.418c-1.039,-0 -2.048,0.001 -3.058,-0c-1.667,-0 -1.952,-0.282 -1.975,-1.957c-0.002,-0.154 -0.014,-0.307 -0.025,-0.558l-0.858,-0c-2.516,-0 -5.032,0.003 -7.547,-0.001c-1.193,-0.003 -1.631,-0.426 -1.632,-1.591c-0.002,-12.367 -0.002,-24.734 0.001,-37.102c-0,-1.12 0.445,-1.553 1.585,-1.555c2.516,-0.005 5.032,-0.002 7.547,-0.002l0.731,0c0.209,-0.776 0.201,-1.641 0.629,-2.088c0.406,-0.424 1.269,-0.408 2.085,-0.627l0,-1.833c0,-1.258 -0.001,-2.516 0.001,-3.773c0.001,-1.158 0.151,-1.379 1.232,-1.819l-0,-2.391c-0.399,-0.03 -0.775,-0.056 -1.192,-0.086l0,-2.443l3.719,0l0,-5.025l2.502,-0l-0,4.983l3.765,0l-0,2.484c-0.378,0.024 -0.755,0.047 -1.176,0.072l0,2.444c1.086,0.174 1.246,0.974 1.225,1.959c-0.041,1.832 -0.012,3.667 -0.012,5.564l2.516,0l0,-2.933c0,-0.917 0.035,-1.836 -0.009,-2.75c-0.046,-0.953 0.219,-1.653 1.234,-1.845l0,-2.44c-0.385,-0.018 -0.744,-0.034 -1.163,-0.055l-0,-2.473l3.686,0l-0,-4.989l2.527,0l0,4.948l3.73,0l0,2.5c-0.369,0.024 -0.748,0.048 -1.16,0.075l-0,2.431c1.04,0.195 1.255,0.936 1.231,1.908c-0.043,1.857 -0.012,3.716 -0.012,5.63l2.516,0l-0,-4.768c-0,-0.366 0.02,-0.735 -0.004,-1.1c-0.058,-0.892 0.315,-1.46 1.223,-1.66l-0,-2.461l-1.165,0l0,-2.5l3.679,0l0,-5.01l2.529,0l-0,4.942l3.751,0l-0,2.526l-1.15,-0l0,2.501c0.991,0.189 1.232,0.891 1.212,1.842c-0.039,1.881 -0.011,3.763 -0.011,5.695l5.03,-0c-0,-1.483 0.013,-2.943 -0.015,-4.402c-0.003,-0.194 -0.176,-0.422 -0.333,-0.569c-4.118,-3.91 -4.571,-9.269 -1.181,-13.884c0.168,-0.229 0.255,-0.567 0.261,-0.857c0.027,-1.361 -0.001,-2.725 0.015,-4.087c0.026,-2.197 1.639,-3.805 3.846,-3.819c2.463,-0.016 4.927,-0.016 7.391,-0.001c2.21,0.015 3.815,1.615 3.853,3.813c0.009,0.498 0.029,0.998 -0.002,1.493c-0.113,1.793 0.206,3.359 1.21,4.995c2.423,3.947 1.488,9.014 -1.951,12.172c-0.39,0.357 -0.534,0.704 -0.522,1.213c0.028,1.303 0.009,2.606 0.009,3.897c2.398,0.343 2.398,0.343 2.562,2.601l0.821,0c2.543,0 5.084,-0.004 7.627,0.002c1.126,0.003 1.568,0.444 1.569,1.573c0.003,12.368 0.003,24.735 -0,37.102c-0.001,1.128 -0.445,1.568 -1.572,1.572c-2.517,0.005 -5.032,0.002 -7.548,0.002l-0.9,-0Zm-51.582,-50.366l2.419,0l-0,-2.423l-2.419,-0l0,2.423Zm31.451,55.353l12.488,-0l0,-2.414l-12.488,-0l0,2.414Zm-6.3,-55.361l2.447,0l-0,-2.407l-2.447,-0l0,2.407Zm21.316,4.375c-2.511,0.964 -4.984,0.922 -7.447,0.027l0,3.144l7.447,-0l-0,-3.171Zm-42.784,-1.739l-4.941,-0l-0,4.934l4.941,-0l0,-4.934Zm11.309,-5.038l-2.39,0l-0,2.447l2.39,-0l0,-2.447Zm-1.228,55.346l-12.481,-0l0,2.421l12.481,0l-0,-2.421Zm-25.176,-40.242l-2.424,0l0,35.119l2.424,0l-0,-35.119Zm59.175,-26.463c-0,-0.886 0.023,-1.695 -0.006,-2.503c-0.029,-0.783 -0.508,-1.269 -1.297,-1.275c-2.484,-0.02 -4.968,-0.012 -7.452,-0.004c-0.689,0.003 -1.199,0.368 -1.264,1.044c-0.085,0.89 -0.021,1.793 -0.021,2.729c3.833,-1.789 6.659,-1.577 10.04,0.009Zm-31.499,16.397l-4.942,-0l0,4.934l4.942,-0l-0,-4.934Zm-20.04,47.682l52.737,0l0,-40.153l-52.737,0l0,40.153Zm6.804,-35.163l39.155,-0c1.443,-0 1.808,0.364 1.808,1.808c0,8.857 0.001,17.713 0,26.57c0,1.442 -0.367,1.808 -1.81,1.808c-13.051,0.002 -26.102,0.002 -39.154,0c-1.442,0 -1.806,-0.364 -1.806,-1.809c-0.001,-8.857 -0.001,-17.713 -0,-26.57c-0,-1.445 0.362,-1.807 1.807,-1.807Zm0.743,27.615l37.641,0l-0,-25.058l-37.641,0l-0,25.058Zm17.539,-6.333c0,-0.993 0.32,-2.156 -0.09,-2.933c-0.41,-0.779 -1.548,-1.173 -2.368,-1.734c-0.216,-0.148 -0.438,-0.288 -0.65,-0.44c-0.584,-0.42 -0.786,-0.959 -0.494,-1.642c1.234,-2.886 2.467,-5.771 3.703,-8.656c0.255,-0.594 0.707,-0.92 1.363,-0.829c0.653,0.092 0.978,0.533 1.099,1.164c0.313,1.618 0.653,3.231 0.954,4.852c0.096,0.519 0.304,0.889 0.778,1.175c0.874,0.524 1.712,1.111 2.553,1.691c0.799,0.553 0.947,1.115 0.477,1.945c-1.612,2.846 -3.241,5.682 -4.864,8.522c-0.336,0.587 -0.827,0.898 -1.502,0.703c-0.664,-0.193 -0.934,-0.7 -0.924,-1.382c0.012,-0.812 0.003,-1.624 0.003,-2.436l-0.038,-0Zm-0.906,-6.661c0.647,0.435 1.198,0.894 1.821,1.206c1.237,0.62 1.895,1.51 1.658,2.937c-0.004,0.023 0.063,0.058 0.137,0.124c0.644,-1.13 1.282,-2.251 1.934,-3.395c-0.959,-0.642 -2.02,-1.09 -2.686,-1.876c-0.627,-0.738 -0.836,-1.831 -1.239,-2.791c-0.528,1.232 -1.059,2.475 -1.625,3.795Zm23.545,-27.303c-0.158,-0.794 -0.592,-1.16 -1.267,-1.135c-0.631,0.022 -1.035,0.386 -1.157,1.135l2.424,-0Zm6.163,-8.708c-0.411,-3.069 -3.193,-5.83 -6.143,-6.101l0,2.292l-2.498,0l-0,-2.289c-2.948,0.264 -6.015,3.353 -6.07,6.125l2.244,-0l-0,2.533l-2.338,0c0.482,2.371 1.73,4.075 3.514,5.148c0.741,-0.773 1.349,-1.556 2.109,-2.14c0.415,-0.319 0.561,-0.571 0.554,-1.052c-0.022,-1.482 -0.008,-2.967 -0.008,-4.452l2.515,-0c0,1.572 -0.012,3.089 0.013,4.605c0.004,0.241 0.114,0.605 0.287,0.696c1.032,0.539 1.706,1.363 2.112,2.492c2.049,-1.232 3.285,-2.954 3.761,-5.354l-2.342,-0l-0,-2.503l2.29,-0Zm8.923,18.937l-2.424,-0l-0,35.118l2.424,0l0,-35.118Zm-30.192,-10.066l-4.942,-0l0,4.934l4.942,-0l0,-4.934Zm-37.634,45.159l2.424,0l-0,-35.119l-2.424,0l0,35.119Zm60.383,0.001l2.425,0l0,-35.118l-2.425,-0l-0,35.118Z" style="fill:#f3e907;"></path>
</svg>
