<?xml version="1.0" encoding="UTF-8"?>
<svg xmlns="http://www.w3.org/2000/svg" width="1200pt" height="1200pt" version="1.1" viewBox="0 0 1200 1200">
  <g fill="#fbea02">
    <path d="m132 571.38h18.246v496.62c0 6.6289 5.3672 12 12 12h875.51c6.6328 0 12-5.3711 12-12v-496.62h18.246c6.6328 0 12-5.3711 12-12v-291.47c0-6.6289-5.3672-12-12-12h-156.7v-123.91c0-6.6289-5.3672-12-12-12h-598.59c-6.6328 0-12 5.3711-12 12v123.91h-156.7c-6.6328 0-12 5.3711-12 12v291.47c0 6.625 5.3672 12 12 12zm893.75 484.62h-851.51v-484.62h114.46v46.566c0 6.6289 5.3672 12 12 12h104.11c6.6328 0 12-5.3711 12-12v-46.566h366.38v46.566c0 6.6289 5.3672 12 12 12h104.11c6.6328 0 12-5.3711 12-12v-46.566h114.46zm-713.05-450.06v-138.19h80.109v138.19zm494.48 0v-138.19h80.109v138.19zm-494.48-461.94h574.59v111.91h-574.59zm-168.7 135.91h912v267.47h-144.7v-91.621c0-6.6289-5.3672-12-12-12l-104.11-0.003906c-6.6328 0-12 5.3711-12 12v91.621h-366.38v-91.621c0-6.6289-5.3672-12-12-12h-104.11c-6.6328 0-12 5.3711-12 12v91.621l-144.7 0.003906z"></path>
    <path d="m808.54 786.83h89.543c4.1953 0 8.0859-2.1914 10.254-5.7695 2.1797-3.5859 2.332-8.0469 0.38672-11.766-22.371-43.008-66.316-69.727-114.68-69.727-50.051 0-94.887 28.418-116.39 73.059h-154.66c-21.504-44.641-66.34-73.059-116.39-73.059-48.352 0-92.297 26.719-114.67 69.727-1.9453 3.7227-1.793 8.1797 0.38672 11.766 2.168 3.5781 6.0586 5.7695 10.254 5.7695h89.531l26.543 26.539v30.961l-26.543 26.543h-89.531c-4.1953 0-8.0859 2.1914-10.254 5.7695-2.1797 3.5859-2.332 8.0469-0.38672 11.766 22.371 43.008 66.316 69.723 114.67 69.723 51.082 0 97.512-30.57 118.08-76.898h151.29c20.566 46.328 66.996 76.898 118.08 76.898 48.363 0 92.309-26.711 114.68-69.723 1.9453-3.7148 1.793-8.1797-0.38672-11.766-2.168-3.5781-6.0586-5.7695-10.254-5.7695l-89.543-0.007812-26.543-26.539v-30.961zm-47.027 70.953 33.574 33.57c2.25 2.25 5.2969 3.5156 8.4844 3.5156h72.434c-19.758 24.609-49.652 39.258-81.961 39.258-43.898 0-83.578-27.742-98.742-69.035-1.7344-4.7227-6.2344-7.8633-11.262-7.8633h-167.44c-5.0273 0-9.5273 3.1406-11.262 7.8633-15.164 41.293-54.844 69.035-98.742 69.035-32.297 0-62.191-14.648-81.949-39.258h72.422c3.1875 0 6.2344-1.2656 8.4844-3.5156l33.574-33.574c2.25-2.25 3.5156-5.3008 3.5156-8.4844v-40.898c0-3.1797-1.2656-6.2344-3.5156-8.4844l-33.574-33.57c-2.25-2.25-5.2969-3.5156-8.4844-3.5156h-72.422c19.758-24.609 49.652-39.266 81.949-39.266 42.984 0 81.246 25.746 97.488 65.59 1.8398 4.5156 6.2344 7.4727 11.109 7.4727h170.25c4.875 0 9.2695-2.9531 11.109-7.4727 16.242-39.844 54.504-65.59 97.488-65.59 32.309 0 62.191 14.652 81.961 39.266h-72.434c-3.1875 0-6.2344 1.2656-8.4844 3.5156l-33.574 33.57c-2.25 2.25-3.5156 5.3008-3.5156 8.4844v40.898c0 3.1836 1.2656 6.2383 3.5156 8.4883z"></path>
  </g>
</svg>
