<?xml version="1.0" encoding="UTF-8" standalone="no" ?>
<!DOCTYPE svg PUBLIC "-//W3C//DTD SVG 1.1//EN" "http://www.w3.org/Graphics/SVG/1.1/DTD/svg11.dtd">
<svg xmlns="http://www.w3.org/2000/svg" xmlns:xlink="http://www.w3.org/1999/xlink" version="1.1" width="1280" height="1232.0933096938809" viewBox="0 0 1280 1232.0933096938809" xml:space="preserve">
<desc>Created with Fabric.js 5.3.0</desc>
<defs>
</defs>
<g transform="matrix(1 0 0 1 640 616.0466548469404)" id="background-logo"  >
<rect style="stroke: none; stroke-width: 0; stroke-dasharray: none; stroke-linecap: butt; stroke-dashoffset: 0; stroke-linejoin: miter; stroke-miterlimit: 4; fill: rgb(255,255,255); fill-opacity: 0; fill-rule: nonzero; opacity: 1;"  paint-order="stroke"  x="-1006.6353358493828" y="-805.3082686795063" rx="0" ry="0" width="2013.2706716987657" height="1610.6165373590127" />
</g>
<g transform="matrix(0.31333507465296545 -3.0814498337293768 3.0814498337293763 0.31333507465296545 55.00984714589549 579.5691377791076)" id="text-logo-0"  >
<g style=""  paint-order="stroke"   >
		<g transform="matrix(1 0 0 1 0 0)" id="fffeb3cb-fcfa-40c6-b8d2-c01196658e1c-path-0"  >
<path style="stroke: none; stroke-width: 0; stroke-dasharray: none; stroke-linecap: butt; stroke-dashoffset: 0; stroke-linejoin: miter; stroke-miterlimit: 4; fill: rgb(106,63,191); fill-rule: nonzero; opacity: 1;"  paint-order="stroke"  transform=" translate(-10.104999999999999, 16.45)" d="M 8.13 0.47 L 12.08 0.47 C 16.78 0.47 19.27 -1.74 19.27 -6.72 L 19.27 -13.63 C 19.27 -18.61 16.78 -20.82 12.08 -20.82 L 9.87 -20.82 C 9.35 -20.82 8.93 -21.24 8.93 -21.76 L 8.93 -24.91 C 8.93 -25.52 9.21 -25.85 9.87 -25.85 L 10.34 -25.85 C 10.95 -25.85 11.28 -25.57 11.28 -24.91 L 11.28 -22.8 C 11.28 -22.51 11.47 -22.32 11.75 -22.32 L 18.8 -22.32 C 19.08 -22.32 19.27 -22.51 19.27 -22.8 L 19.27 -26.18 C 19.27 -30.88 17.06 -33.37 12.08 -33.37 L 8.13 -33.37 C 3.43 -33.37 0.94 -31.16 0.94 -26.18 L 0.94 -20.82 C 0.94 -15.84 3.43 -13.63 8.13 -13.63 L 10.34 -13.63 C 10.86 -13.63 11.28 -13.21 11.28 -12.69 L 11.28 -7.99 C 11.28 -7.47 10.86 -7.05 10.34 -7.05 L 9.87 -7.05 C 9.35 -7.05 8.93 -7.47 8.93 -7.99 L 8.93 -11.52 C 8.93 -11.8 8.74 -11.98 8.46 -11.98 L 1.41 -11.98 C 1.13 -11.98 0.94 -11.8 0.94 -11.52 L 0.94 -6.72 C 0.94 -2.02 3.15 0.47 8.13 0.47 Z" stroke-linecap="round" />
</g>
</g>
</g>
<g transform="matrix(0.9273036168424692 -2.955269860603165 2.9552698606031655 0.9273036168424694 78.96656661600787 463.0099200325408)" id="text-logo-1"  >
<g style=""  paint-order="stroke"   >
		<g transform="matrix(1 0 0 1 0 0)" id="a54952de-07c0-4dc1-bc80-2f21c597ea02-path-0"  >
<path style="stroke: none; stroke-width: 0; stroke-dasharray: none; stroke-linecap: butt; stroke-dashoffset: 0; stroke-linejoin: miter; stroke-miterlimit: 4; fill: rgb(106,63,191); fill-rule: nonzero; opacity: 1;"  paint-order="stroke"  transform=" translate(-10.104999999999999, 16.45)" d="M 11.75 0 L 18.8 0 C 19.08 0 19.27 -0.19 19.27 -0.47 L 19.27 -32.43 C 19.27 -32.71 19.08 -32.9 18.8 -32.9 L 11.75 -32.9 C 11.47 -32.9 11.28 -32.71 11.28 -32.43 L 11.28 -20.45 C 11.28 -20.16 11.09 -19.98 10.81 -19.98 L 9.4 -19.98 C 9.12 -19.98 8.93 -20.16 8.93 -20.45 L 8.93 -32.43 C 8.93 -32.71 8.74 -32.9 8.46 -32.9 L 1.41 -32.9 C 1.13 -32.9 0.94 -32.71 0.94 -32.43 L 0.94 -0.47 C 0.94 -0.19 1.13 0 1.41 0 L 8.46 0 C 8.74 0 8.93 -0.19 8.93 -0.47 L 8.93 -12.46 C 8.93 -12.74 9.12 -12.93 9.4 -12.93 L 10.81 -12.93 C 11.09 -12.93 11.28 -12.74 11.28 -12.46 L 11.28 -0.47 C 11.28 -0.19 11.47 0 11.75 0 Z" stroke-linecap="round" />
</g>
</g>
</g>
<g transform="matrix(1.503296713353073 -2.7080640572963617 2.7080640572963612 1.5032967133530728 125.89631292365061 353.6641257417136)" id="text-logo-2"  >
<g style=""  paint-order="stroke"   >
		<g transform="matrix(1 0 0 1 0 0)" id="94a3bce9-d127-4b03-acc5-6e1cee5178e8-path-0"  >
<path style="stroke: none; stroke-width: 0; stroke-dasharray: none; stroke-linecap: butt; stroke-dashoffset: 0; stroke-linejoin: miter; stroke-miterlimit: 4; fill: rgb(106,63,191); fill-rule: nonzero; opacity: 1;"  paint-order="stroke"  transform=" translate(-10.104999999999999, 16.45)" d="M 8.13 0.47 L 12.08 0.47 C 17.06 0.47 19.27 -2.02 19.27 -6.72 L 19.27 -26.18 C 19.27 -30.88 17.06 -33.37 12.08 -33.37 L 8.13 -33.37 C 3.43 -33.37 0.94 -31.16 0.94 -26.18 L 0.94 -6.72 C 0.94 -1.74 3.43 0.47 8.13 0.47 Z M 10.34 -7.05 L 9.87 -7.05 C 9.35 -7.05 8.93 -7.47 8.93 -7.99 L 8.93 -24.91 C 8.93 -25.52 9.21 -25.85 9.87 -25.85 L 10.34 -25.85 C 10.95 -25.85 11.28 -25.57 11.28 -24.91 L 11.28 -7.99 C 11.28 -7.47 10.86 -7.05 10.34 -7.05 Z" stroke-linecap="round" />
</g>
</g>
</g>
<g transform="matrix(2.1018060696087333 -2.275065535881211 2.2750655358812115 2.1018060696087337 208.10796232317426 240.02608408868974)" id="text-logo-3"  >
<g style=""  paint-order="stroke"   >
		<g transform="matrix(1 0 0 1 0 0)" id="216029e5-4abe-4e28-ba50-a3f01f9b6a57-path-0"  >
<path style="stroke: none; stroke-width: 0; stroke-dasharray: none; stroke-linecap: butt; stroke-dashoffset: 0; stroke-linejoin: miter; stroke-miterlimit: 4; fill: rgb(106,63,191); fill-rule: nonzero; opacity: 1;"  paint-order="stroke"  transform=" translate(-15.979999999999999, 16.45)" d="M 17.81 0 L 25.94 0 C 26.18 0 26.32 -0.14 26.37 -0.38 L 31.4 -32.34 C 31.44 -32.66 31.21 -32.9 30.88 -32.9 L 23.45 -32.9 C 23.22 -32.9 22.98 -32.76 22.98 -32.48 L 21.15 -10.95 L 19.32 -32.48 C 19.32 -32.76 19.08 -32.9 18.85 -32.9 L 13.11 -32.9 C 12.88 -32.9 12.64 -32.76 12.64 -32.48 L 10.81 -10.95 L 8.98 -32.48 C 8.98 -32.76 8.74 -32.9 8.51 -32.9 L 1.08 -32.9 C 0.75 -32.9 0.52 -32.66 0.56 -32.34 L 5.59 -0.38 C 5.64 -0.14 5.78 0 6.02 0 L 14.15 0 C 14.38 0 14.57 -0.14 14.62 -0.42 L 15.98 -12.36 L 17.34 -0.42 C 17.39 -0.14 17.58 0 17.81 0 Z" stroke-linecap="round" />
</g>
</g>
</g>
<g transform="matrix(2.5807598308214827 -1.712656019875809 1.7126560198758085 2.5807598308214823 314.86767971345705 149.11381911441708)" id="text-logo-4"  >
<g style=""  paint-order="stroke"   >
		<g transform="matrix(1 0 0 1 0 0)" id="5c9f9b09-2908-4d4a-9198-6a6b706a2119-path-0"  >
<path style="stroke: none; stroke-width: 0; stroke-dasharray: none; stroke-linecap: butt; stroke-dashoffset: 0; stroke-linejoin: miter; stroke-miterlimit: 4; fill: rgb(106,63,191); fill-rule: nonzero; opacity: 1;"  paint-order="stroke"  transform=" translate(-10.104999999999999, 16.45)" d="M 6.58 0 L 13.63 0 C 13.91 0 14.1 -0.19 14.1 -0.47 L 14.1 -25.38 C 14.1 -25.66 14.29 -25.85 14.57 -25.85 L 18.8 -25.85 C 19.08 -25.85 19.27 -26.04 19.27 -26.32 L 19.27 -32.43 C 19.27 -32.71 19.08 -32.9 18.8 -32.9 L 1.41 -32.9 C 1.13 -32.9 0.94 -32.71 0.94 -32.43 L 0.94 -26.32 C 0.94 -26.04 1.13 -25.85 1.41 -25.85 L 5.64 -25.85 C 5.92 -25.85 6.11 -25.66 6.11 -25.38 L 6.11 -0.47 C 6.11 -0.19 6.3 0 6.58 0 Z" stroke-linecap="round" />
</g>
</g>
</g>
<g transform="matrix(2.8342115561852523 -1.2493025260458528 1.2493025260458528 2.8342115561852523 402.82962931284794 100.99640520482035)" id="text-logo-5"  >
<g style=""  paint-order="stroke"   >
		<g transform="matrix(1 0 0 1 0 0)" id="a6e25021-3e32-4527-bd14-a038e0ed0def-path-0"  >
<path style="stroke: none; stroke-width: 0; stroke-dasharray: none; stroke-linecap: butt; stroke-dashoffset: 0; stroke-linejoin: miter; stroke-miterlimit: 4; fill: rgb(106,63,191); fill-rule: nonzero; opacity: 1;"  paint-order="stroke"  transform=" translate(-4.9350000000000005, 16.45)" d="M 1.41 0 L 8.46 0 C 8.74 0 8.93 -0.19 8.93 -0.47 L 8.93 -32.43 C 8.93 -32.71 8.74 -32.9 8.46 -32.9 L 1.41 -32.9 C 1.13 -32.9 0.94 -32.71 0.94 -32.43 L 0.94 -0.47 C 0.94 -0.19 1.13 0 1.41 0 Z" stroke-linecap="round" />
</g>
</g>
</g>
<g transform="matrix(3.0208929859992244 -0.6838987600071172 0.6838987600071171 3.020892985999224 510.16724334463754 65.55869640304252)" id="text-logo-6"  >
<g style=""  paint-order="stroke"   >
		<g transform="matrix(1 0 0 1 0 0)" id="18f011db-ed6f-45c3-8501-f89a0872a55d-path-0"  >
<path style="stroke: none; stroke-width: 0; stroke-dasharray: none; stroke-linecap: butt; stroke-dashoffset: 0; stroke-linejoin: miter; stroke-miterlimit: 4; fill: rgb(106,63,191); fill-rule: nonzero; opacity: 1;"  paint-order="stroke"  transform=" translate(-13.629999999999999, 16.45)" d="M 11.66 0 L 15.6 0 C 15.79 0 15.98 -0.19 16.03 -0.38 L 18.33 -12.64 L 18.33 -0.47 C 18.33 -0.19 18.52 0 18.8 0 L 25.85 0 C 26.13 0 26.32 -0.19 26.32 -0.47 L 26.32 -32.43 C 26.32 -32.71 26.13 -32.9 25.85 -32.9 L 16.83 -32.9 C 16.59 -32.9 16.45 -32.76 16.4 -32.52 L 13.63 -14.95 L 10.86 -32.52 C 10.81 -32.76 10.67 -32.9 10.43 -32.9 L 1.41 -32.9 C 1.13 -32.9 0.94 -32.71 0.94 -32.43 L 0.94 -0.47 C 0.94 -0.19 1.13 0 1.41 0 L 8.46 0 C 8.74 0 8.93 -0.19 8.93 -0.47 L 8.93 -12.64 L 11.23 -0.38 C 11.28 -0.19 11.47 0 11.66 0 Z" stroke-linecap="round" />
</g>
</g>
</g>
<g transform="matrix(3.097315620718255 -0.01216110411374508 0.012161104113745082 3.0973156207182555 637.688771215038 51.050867042151026)" id="text-logo-7"  >
<g style=""  paint-order="stroke"   >
		<g transform="matrix(1 0 0 1 0 0)" id="24f10555-a5f2-495b-999c-ba237e9186c7-path-0"  >
<path style="stroke: none; stroke-width: 0; stroke-dasharray: none; stroke-linecap: butt; stroke-dashoffset: 0; stroke-linejoin: miter; stroke-miterlimit: 4; fill: rgb(106,63,191); fill-rule: nonzero; opacity: 1;"  paint-order="stroke"  transform=" translate(-9.165, 16.45)" d="M 1.41 0 L 16.92 0 C 17.2 0 17.39 -0.19 17.39 -0.47 L 17.39 -6.58 C 17.39 -6.86 17.2 -7.05 16.92 -7.05 L 9.4 -7.05 C 9.12 -7.05 8.93 -7.24 8.93 -7.52 L 8.93 -12.46 C 8.93 -12.74 9.12 -12.93 9.4 -12.93 L 15.98 -12.93 C 16.26 -12.93 16.45 -13.11 16.45 -13.39 L 16.45 -19.5 C 16.45 -19.79 16.26 -19.98 15.98 -19.98 L 9.4 -19.98 C 9.12 -19.98 8.93 -20.16 8.93 -20.45 L 8.93 -25.38 C 8.93 -25.66 9.12 -25.85 9.4 -25.85 L 16.92 -25.85 C 17.2 -25.85 17.39 -26.04 17.39 -26.32 L 17.39 -32.43 C 17.39 -32.71 17.2 -32.9 16.92 -32.9 L 1.41 -32.9 C 1.13 -32.9 0.94 -32.71 0.94 -32.43 L 0.94 -0.47 C 0.94 -0.19 1.13 0 1.41 0 Z" stroke-linecap="round" />
</g>
</g>
</g>
<g transform="matrix(0.9873028818639761 0.15884904615101594 -0.15884904615101594 0.9873028818639761 357.1800465835988 96.2984307347536)" id="text-logo-8"  >
<g style=""  paint-order="stroke"   >
		<g transform="matrix(1 0 0 1 0 0)" id="88b4baa0-d0d8-4d0f-85e7-644d9ade110f-path-0"  >
<path style="stroke: none; stroke-width: 0; stroke-dasharray: none; stroke-linecap: butt; stroke-dashoffset: 0; stroke-linejoin: miter; stroke-miterlimit: 4; fill: rgb(106,63,191); fill-rule: nonzero; opacity: 1;"  paint-order="stroke"  transform=" translate(0, 0)" d="" stroke-linecap="round" />
</g>
</g>
</g>
<g transform="matrix(2.931423953657896 1.0001327665461686 -1.0001327665461683 2.9314239536578954 829.8676415783715 82.5467623806619)" id="text-logo-9"  >
<g style=""  paint-order="stroke"   >
		<g transform="matrix(1 0 0 1 0 0)" id="540860c6-e797-4e15-bb5e-cbad7fbdc807-path-0"  >
<path style="stroke: none; stroke-width: 0; stroke-dasharray: none; stroke-linecap: butt; stroke-dashoffset: 0; stroke-linejoin: miter; stroke-miterlimit: 4; fill: rgb(106,63,191); fill-rule: nonzero; opacity: 1;"  paint-order="stroke"  transform=" translate(-10.104999999999999, 16.45)" d="M 1.41 0 L 8.46 0 C 8.74 0 8.93 -0.19 8.93 -0.47 L 8.93 -10.57 C 8.93 -10.86 9.12 -11.04 9.4 -11.04 L 10.34 -11.04 C 10.86 -11.04 11.28 -10.62 11.28 -10.11 L 11.28 -0.47 C 11.28 -0.19 11.47 0 11.75 0 L 18.8 0 C 19.08 0 19.27 -0.19 19.27 -0.47 L 19.27 -9.31 C 19.27 -12.55 18.28 -14.71 15.98 -15.79 C 18.24 -16.83 19.27 -18.99 19.27 -22.23 L 19.27 -25.71 C 19.27 -30.41 17.06 -32.9 12.08 -32.9 L 1.88 -32.9 C 1.36 -32.9 0.94 -32.48 0.94 -31.96 L 0.94 -0.47 C 0.94 -0.19 1.13 0 1.41 0 Z M 10.34 -18.09 L 9.4 -18.09 C 9.12 -18.09 8.93 -18.28 8.93 -18.57 L 8.93 -25.38 C 8.93 -25.66 9.12 -25.85 9.4 -25.85 L 10.34 -25.85 C 10.95 -25.85 11.28 -25.57 11.28 -24.91 L 11.28 -19.04 C 11.28 -18.52 10.86 -18.09 10.34 -18.09 Z" stroke-linecap="round" />
</g>
</g>
</g>
<g transform="matrix(2.670043823200982 1.5698337265407631 -1.5698337265407631 2.670043823200982 938.0199404109774 132.1665481306722)" id="text-logo-10"  >
<g style=""  paint-order="stroke"   >
		<g transform="matrix(1 0 0 1 0 0)" id="2301b03b-3766-4b27-8b74-851990f7fff6-path-0"  >
<path style="stroke: none; stroke-width: 0; stroke-dasharray: none; stroke-linecap: butt; stroke-dashoffset: 0; stroke-linejoin: miter; stroke-miterlimit: 4; fill: rgb(106,63,191); fill-rule: nonzero; opacity: 1;"  paint-order="stroke"  transform=" translate(-10.104999999999999, 16.45)" d="M 8.13 0.47 L 12.08 0.47 C 17.06 0.47 19.27 -2.02 19.27 -6.72 L 19.27 -26.18 C 19.27 -30.88 17.06 -33.37 12.08 -33.37 L 8.13 -33.37 C 3.43 -33.37 0.94 -31.16 0.94 -26.18 L 0.94 -6.72 C 0.94 -1.74 3.43 0.47 8.13 0.47 Z M 10.34 -7.05 L 9.87 -7.05 C 9.35 -7.05 8.93 -7.47 8.93 -7.99 L 8.93 -24.91 C 8.93 -25.52 9.21 -25.85 9.87 -25.85 L 10.34 -25.85 C 10.95 -25.85 11.28 -25.57 11.28 -24.91 L 11.28 -7.99 C 11.28 -7.47 10.86 -7.05 10.34 -7.05 Z" stroke-linecap="round" />
</g>
</g>
</g>
<g transform="matrix(2.2993185954893933 2.0752459958364615 -2.0752459958364615 2.2993185954893933 1033.9698108113857 202.54659795146682)" id="text-logo-11"  >
<g style=""  paint-order="stroke"   >
		<g transform="matrix(1 0 0 1 0 0)" id="d9abc403-bea3-4f2a-97dc-080261432c99-path-0"  >
<path style="stroke: none; stroke-width: 0; stroke-dasharray: none; stroke-linecap: butt; stroke-dashoffset: 0; stroke-linejoin: miter; stroke-miterlimit: 4; fill: rgb(106,63,191); fill-rule: nonzero; opacity: 1;"  paint-order="stroke"  transform=" translate(-10.104999999999999, 16.45)" d="M 8.13 0.47 L 12.08 0.47 C 17.06 0.47 19.27 -2.02 19.27 -6.72 L 19.27 -26.18 C 19.27 -30.88 17.06 -33.37 12.08 -33.37 L 8.13 -33.37 C 3.43 -33.37 0.94 -31.16 0.94 -26.18 L 0.94 -6.72 C 0.94 -1.74 3.43 0.47 8.13 0.47 Z M 10.34 -7.05 L 9.87 -7.05 C 9.35 -7.05 8.93 -7.47 8.93 -7.99 L 8.93 -24.91 C 8.93 -25.52 9.21 -25.85 9.87 -25.85 L 10.34 -25.85 C 10.95 -25.85 11.28 -25.57 11.28 -24.91 L 11.28 -7.99 C 11.28 -7.47 10.86 -7.05 10.34 -7.05 Z" stroke-linecap="round" />
</g>
</g>
</g>
<g transform="matrix(1.848916033821651 2.4849590432592232 -2.4849590432592232 1.848916033821651 1111.7497754884887 288.04640204126963)" id="text-logo-12"  >
<g style=""  paint-order="stroke"   >
		<g transform="matrix(1 0 0 1 0 1.77636e-15)" id="c51260f8-9584-4c2a-aa59-41473dc9f3f3-path-0"  >
<path style="stroke: none; stroke-width: 0; stroke-dasharray: none; stroke-linecap: butt; stroke-dashoffset: 0; stroke-linejoin: miter; stroke-miterlimit: 4; fill: rgb(106,63,191); fill-rule: nonzero; opacity: 1;"  paint-order="stroke"  transform=" translate(-9.165, 16.45)" d="M 1.41 0 L 8.46 0 C 8.74 0 8.93 -0.19 8.93 -0.47 L 8.93 -12.46 C 8.93 -12.74 9.12 -12.93 9.4 -12.93 L 15.98 -12.93 C 16.26 -12.93 16.45 -13.11 16.45 -13.39 L 16.45 -19.5 C 16.45 -19.79 16.26 -19.98 15.98 -19.98 L 9.4 -19.98 C 9.12 -19.98 8.93 -20.16 8.93 -20.45 L 8.93 -25.38 C 8.93 -25.66 9.12 -25.85 9.4 -25.85 L 16.92 -25.85 C 17.2 -25.85 17.39 -26.04 17.39 -26.32 L 17.39 -32.43 C 17.39 -32.71 17.2 -32.9 16.92 -32.9 L 1.41 -32.9 C 1.13 -32.9 0.94 -32.71 0.94 -32.43 L 0.94 -0.47 C 0.94 -0.19 1.13 0 1.41 0 Z" stroke-linecap="round" />
</g>
</g>
</g>
<g transform="matrix(1.4159052924877684 2.7547639008640483 -2.7547639008640483 1.4159052924877682 1162.9703990971286 370.2506771751926)" id="text-logo-13"  >
<g style=""  paint-order="stroke"   >
		<g transform="matrix(1 0 0 1 0 0)" id="896bb471-0c8f-4204-b753-9389da9001e0-path-0"  >
<path style="stroke: none; stroke-width: 0; stroke-dasharray: none; stroke-linecap: butt; stroke-dashoffset: 0; stroke-linejoin: miter; stroke-miterlimit: 4; fill: rgb(106,63,191); fill-rule: nonzero; opacity: 1;"  paint-order="stroke"  transform=" translate(-4.9350000000000005, 16.45)" d="M 1.41 0 L 8.46 0 C 8.74 0 8.93 -0.19 8.93 -0.47 L 8.93 -32.43 C 8.93 -32.71 8.74 -32.9 8.46 -32.9 L 1.41 -32.9 C 1.13 -32.9 0.94 -32.71 0.94 -32.43 L 0.94 -0.47 C 0.94 -0.19 1.13 0 1.41 0 Z" stroke-linecap="round" />
</g>
</g>
</g>
<g transform="matrix(0.9273036168424692 2.955269860603165 -2.9552698606031655 0.9273036168424694 1201.033433383992 463.0099200325408)" id="text-logo-14"  >
<g style=""  paint-order="stroke"   >
		<g transform="matrix(1 0 0 1 0 0)" id="2c76fd7f-7dc9-4021-b269-cae7820bea07-path-0"  >
<path style="stroke: none; stroke-width: 0; stroke-dasharray: none; stroke-linecap: butt; stroke-dashoffset: 0; stroke-linejoin: miter; stroke-miterlimit: 4; fill: rgb(106,63,191); fill-rule: nonzero; opacity: 1;"  paint-order="stroke"  transform=" translate(-10.104999999999999, 16.45)" d="M 12.6 0 L 18.8 0 C 19.08 0 19.27 -0.19 19.27 -0.47 L 19.27 -32.43 C 19.27 -32.71 19.08 -32.9 18.8 -32.9 L 11.75 -32.9 C 11.47 -32.9 11.28 -32.71 11.28 -32.43 L 11.28 -18.52 L 8.08 -32.57 C 8.04 -32.76 7.8 -32.9 7.61 -32.9 L 1.41 -32.9 C 1.13 -32.9 0.94 -32.71 0.94 -32.43 L 0.94 -0.47 C 0.94 -0.19 1.13 0 1.41 0 L 8.46 0 C 8.74 0 8.93 -0.19 8.93 -0.47 L 8.93 -14.38 L 12.13 -0.33 C 12.17 -0.14 12.41 0 12.6 0 Z" stroke-linecap="round" />
</g>
</g>
</g>
<g transform="matrix(0.31333507465296545 3.0814498337293768 -3.0814498337293763 0.31333507465296545 1224.9901528541045 579.5691377791076)" id="text-logo-15"  >
<g style=""  paint-order="stroke"   >
		<g transform="matrix(1 0 0 1 0 0)" id="621a5ad1-a41a-4e84-9552-871fbf4b2144-path-0"  >
<path style="stroke: none; stroke-width: 0; stroke-dasharray: none; stroke-linecap: butt; stroke-dashoffset: 0; stroke-linejoin: miter; stroke-miterlimit: 4; fill: rgb(106,63,191); fill-rule: nonzero; opacity: 1;"  paint-order="stroke"  transform=" translate(-10.104999999999999, 16.45)" d="M 8.13 0.47 L 12.08 0.47 C 17.06 0.47 19.27 -2.02 19.27 -6.72 L 19.27 -17.16 C 19.27 -17.44 19.08 -17.63 18.8 -17.63 L 10.57 -17.63 C 10.29 -17.63 10.11 -17.44 10.11 -17.16 L 10.11 -11.04 C 10.11 -10.76 10.29 -10.57 10.57 -10.57 L 10.81 -10.57 C 11.09 -10.57 11.28 -10.39 11.28 -10.11 L 11.28 -7.99 C 11.28 -7.47 10.86 -7.05 10.34 -7.05 L 9.87 -7.05 C 9.35 -7.05 8.93 -7.47 8.93 -7.99 L 8.93 -24.91 C 8.93 -25.52 9.21 -25.85 9.87 -25.85 L 10.34 -25.85 C 10.95 -25.85 11.28 -25.57 11.28 -24.91 L 11.28 -20.45 C 11.28 -20.16 11.47 -19.98 11.75 -19.98 L 18.8 -19.98 C 19.08 -19.98 19.27 -20.16 19.27 -20.45 L 19.27 -26.18 C 19.27 -30.88 17.06 -33.37 12.08 -33.37 L 8.13 -33.37 C 3.43 -33.37 0.94 -31.16 0.94 -26.18 L 0.94 -6.72 C 0.94 -1.74 3.43 0.47 8.13 0.47 Z" stroke-linecap="round" />
</g>
</g>
</g>
<g transform="matrix(3.197571560471481 0 0 3.197571560471481 640 622.9819121664281)" id="logo-logo"  >
<g style=""  paint-order="stroke"   >
		<g transform="matrix(1.41333769534161 0 0 1.41333769534161 0 0)"  >
<g style=""  paint-order="stroke"   >
		<g transform="matrix(1 0 0 1 0 0)"  >
<path style="stroke: none; stroke-width: 1; stroke-dasharray: none; stroke-linecap: butt; stroke-dashoffset: 0; stroke-linejoin: miter; stroke-miterlimit: 4; fill: rgb(106,63,191); fill-rule: nonzero; opacity: 1;"  paint-order="stroke"  transform=" translate(-100, -100)" d="M 100 0 C 44.9 0 0 44.9 0 100 C 0 155.1 44.9 200 100 200 C 155.1 200 200 155.1 200 100 C 200 44.9 155.1 0 100 0 z M 100 196.1 C 47 196.1 3.9 153 3.9 100 C 3.9 47 47 3.9 100 3.9 C 153 3.9 196.1 47 196.1 100 C 196.1 153 153 196.1 100 196.1 z" stroke-linecap="round" />
</g>
		<g transform="matrix(1 0 0 1 0 -86.7)"  >
<path style="stroke: none; stroke-width: 1; stroke-dasharray: none; stroke-linecap: butt; stroke-dashoffset: 0; stroke-linejoin: miter; stroke-miterlimit: 4; fill: rgb(106,63,191); fill-rule: nonzero; opacity: 1;"  paint-order="stroke"  transform=" translate(-100, -13.3)" d="M 61.1 18.5 C 73.3 12.6 86.4 9.7 100 9.7 C 113.7 9.7 126.8 12.7 139 18.6 L 139.2 18.700000000000003 L 140.1 17.1 L 139.9 17 C 127.4 11 113.9 7.9 100 7.9 C 86.1 7.9 72.7 11 60.2 17 L 59.9 17 L 60.8 18.6 L 61.1 18.5 z" stroke-linecap="round" />
</g>
		<g transform="matrix(1 0 0 1 -45.4 -79.1)"  >
<path style="stroke: none; stroke-width: 1; stroke-dasharray: none; stroke-linecap: butt; stroke-dashoffset: 0; stroke-linejoin: miter; stroke-miterlimit: 4; fill: rgb(106,63,191); fill-rule: nonzero; opacity: 1;"  paint-order="stroke"  transform=" translate(-54.6, -20.9)" d="M 56.1 19 C 54.800000000000004 19.7 53.5 20.5 52.2 21.2 L 52 21.3 L 52.9 22.900000000000002 L 53.1 22.8 C 54.4 22 55.7 21.3 57 20.6 L 57.2 20.5 L 56.300000000000004 18.9 L 56.1 19 z" stroke-linecap="round" />
</g>
		<g transform="matrix(1 0 0 1 45.400000000000006 -79)"  >
<path style="stroke: none; stroke-width: 1; stroke-dasharray: none; stroke-linecap: butt; stroke-dashoffset: 0; stroke-linejoin: miter; stroke-miterlimit: 4; fill: rgb(106,63,191); fill-rule: nonzero; opacity: 1;"  paint-order="stroke"  transform=" translate(-145.4, -21)" d="M 147.1 23 L 148 21.4 L 147.8 21.299999999999997 C 146.5 20.499999999999996 145.20000000000002 19.799999999999997 143.9 19.099999999999998 L 143.70000000000002 18.999999999999996 L 142.8 20.599999999999998 L 143 20.7 C 144.3 21.4 145.6 22.2 146.9 22.9 L 147.1 23 z" stroke-linecap="round" />
</g>
		<g transform="matrix(1 0 0 1 71.25 -41.74999999999999)"  >
<path style="stroke: none; stroke-width: 1; stroke-dasharray: none; stroke-linecap: butt; stroke-dashoffset: 0; stroke-linejoin: miter; stroke-miterlimit: 4; fill: rgb(106,63,191); fill-rule: nonzero; opacity: 1;"  paint-order="stroke"  transform=" translate(-171.25, -58.25000000000001)" d="M 190 92.8 L 190 93 L 191.9 93 L 191.9 92.7 C 189.70000000000002 64.7 175 39.5 151.7 23.60000000000001 L 151.5 23.500000000000007 L 150.6 25.10000000000001 L 150.79999999999998 25.20000000000001 C 173.5 40.8 187.8 65.4 190 92.8 z" stroke-linecap="round" />
</g>
		<g transform="matrix(1 0 0 1 91.17222222222222 -0.5)"  >
<path style="stroke: none; stroke-width: 1; stroke-dasharray: none; stroke-linecap: butt; stroke-dashoffset: 0; stroke-linejoin: miter; stroke-miterlimit: 4; fill: rgb(106,63,191); fill-rule: nonzero; opacity: 1;"  paint-order="stroke"  transform=" translate(-191.17222222222222, -99.5)" d="M 192.1 98 L 192.1 97 L 190.2 97 L 190.2 98 C 190.2 98.7 190.2 99.3 190.2 100 C 190.2 100.3 190.2 100.7 190.2 101 C 190.2 101.2 190.2 102 190.2 102 L 192.1 102 C 192.1 102 192.1 101.3 192.1 101 C 192.1 100.7 192.1 100.3 192.1 100 C 192.2 99.3 192.1 98.7 192.1 98 z" stroke-linecap="round" />
</g>
		<g transform="matrix(1 0 0 1 0.04999999999999716 86.6)"  >
<path style="stroke: none; stroke-width: 1; stroke-dasharray: none; stroke-linecap: butt; stroke-dashoffset: 0; stroke-linejoin: miter; stroke-miterlimit: 4; fill: rgb(106,63,191); fill-rule: nonzero; opacity: 1;"  paint-order="stroke"  transform=" translate(-100.05, -186.6)" d="M 139.5 181.2 C 127.1 187.2 113.8 190.29999999999998 100 190.29999999999998 C 86.2 190.29999999999998 73 187.29999999999998 60.6 181.2 L 60.4 181.1 L 59.5 182.7 L 59.7 182.79999999999998 C 72.3 188.99999999999997 85.9 192.1 100 192.1 C 114.1 192.1 127.7 189 140.4 182.79999999999998 L 140.6 182.7 L 139.7 181.1 L 139.5 181.2 z" stroke-linecap="round" />
</g>
		<g transform="matrix(1 0 0 1 -45.7 78.85000000000002)"  >
<path style="stroke: none; stroke-width: 1; stroke-dasharray: none; stroke-linecap: butt; stroke-dashoffset: 0; stroke-linejoin: miter; stroke-miterlimit: 4; fill: rgb(106,63,191); fill-rule: nonzero; opacity: 1;"  paint-order="stroke"  transform=" translate(-54.3, -178.85000000000002)" d="M 52.8 176.9 L 52.599999999999994 176.8 L 51.699999999999996 178.4 L 51.9 178.5 C 53.199999999999996 179.3 54.5 180 55.8 180.8 L 56 180.9 L 56.9 179.3 L 56.699999999999996 179.20000000000002 C 55.3 178.5 54 177.7 52.8 176.9 z" stroke-linecap="round" />
</g>
		<g transform="matrix(1 0 0 1 45.80000000000001 78.85000000000002)"  >
<path style="stroke: none; stroke-width: 1; stroke-dasharray: none; stroke-linecap: butt; stroke-dashoffset: 0; stroke-linejoin: miter; stroke-miterlimit: 4; fill: rgb(106,63,191); fill-rule: nonzero; opacity: 1;"  paint-order="stroke"  transform=" translate(-145.8, -178.85000000000002)" d="M 147.3 176.9 C 146 177.70000000000002 144.70000000000002 178.4 143.4 179.20000000000002 L 143.20000000000002 179.3 L 144.10000000000002 180.9 L 144.3 180.8 C 145.60000000000002 180.10000000000002 146.9 179.3 148.20000000000002 178.5 L 148.4 178.4 L 147.5 176.8 L 147.3 176.9 z" stroke-linecap="round" />
</g>
		<g transform="matrix(1 0 0 1 -91.15 -0.5)"  >
<path style="stroke: none; stroke-width: 1; stroke-dasharray: none; stroke-linecap: butt; stroke-dashoffset: 0; stroke-linejoin: miter; stroke-miterlimit: 4; fill: rgb(106,63,191); fill-rule: nonzero; opacity: 1;"  paint-order="stroke"  transform=" translate(-8.850000000000001, -99.5)" d="M 9.7 101 C 9.7 100.7 9.7 100.3 9.7 100 C 9.7 99.3 9.7 98.7 9.7 98 L 9.7 97 L 7.9 97 L 7.9 98 C 7.9 98.7 7.9 99.3 7.9 100 C 7.9 100.4 7.9 100.7 7.9 101.1 L 7.9 102 L 9.8 102 L 9.7 101 z" stroke-linecap="round" />
</g>
		<g transform="matrix(1 0 0 1 71.4 41)"  >
<path style="stroke: none; stroke-width: 1; stroke-dasharray: none; stroke-linecap: butt; stroke-dashoffset: 0; stroke-linejoin: miter; stroke-miterlimit: 4; fill: rgb(106,63,191); fill-rule: nonzero; opacity: 1;"  paint-order="stroke"  transform=" translate(-171.4, -141)" d="M 190.1 106.2 C 188.2 133.8 174 158.7 151.1 174.4 L 150.9 174.5 L 151.8 176.1 L 152 176 C 175.5 159.9 190 134.5 191.9 106.2 L 191.9 105.9 L 190 105.9 L 190.1 106.2 z" stroke-linecap="round" />
</g>
		<g transform="matrix(1 0 0 1 -71.35 41.14999999999998)"  >
<path style="stroke: none; stroke-width: 1; stroke-dasharray: none; stroke-linecap: butt; stroke-dashoffset: 0; stroke-linejoin: miter; stroke-miterlimit: 4; fill: rgb(106,63,191); fill-rule: nonzero; opacity: 1;"  paint-order="stroke"  transform=" translate(-28.65, -141.14999999999998)" d="M 9.9 106.2 L 9.9 106 L 8.1 106 L 8.1 106.3 C 10 134.6 24.6 160 48.1 176.1 L 48.300000000000004 176.29999999999998 L 49.2 174.7 L 49 174.6 C 26.1 158.7 11.8 133.9 9.9 106.2 z" stroke-linecap="round" />
</g>
		<g transform="matrix(1 0 0 1 -71.15 -41.650000000000006)"  >
<path style="stroke: none; stroke-width: 1; stroke-dasharray: none; stroke-linecap: butt; stroke-dashoffset: 0; stroke-linejoin: miter; stroke-miterlimit: 4; fill: rgb(106,63,191); fill-rule: nonzero; opacity: 1;"  paint-order="stroke"  transform=" translate(-28.85, -58.349999999999994)" d="M 48.5 23.6 C 25 39.5 10.3 64.7 8.1 92.8 L 8.1 93.1 L 10 93.1 L 10 92.89999999999999 C 12.2 65.5 26.5 40.79999999999999 49.4 25.299999999999997 L 49.6 25.199999999999996 L 48.7 23.599999999999994 L 48.5 23.6 z" stroke-linecap="round" />
</g>
</g>
</g>
		<g transform="matrix(1.9611657530047568 0 0 1.9611657530047568 0 0)"  >
<g style=""  paint-order="stroke"   >
		<g transform="matrix(1 0 0 1 31.18767225117773 24.85113022718606)"  >
<path style="stroke: none; stroke-width: 1; stroke-dasharray: none; stroke-linecap: butt; stroke-dashoffset: 0; stroke-linejoin: miter; stroke-miterlimit: 4; fill: rgb(106,63,191); fill-rule: nonzero; opacity: 1;"  paint-order="stroke"  transform=" translate(-81.18766128879344, -69.2354794)" d="M 78.0837021 64.919426 C 74.1782303 61.0139542 72.5019531 58.0228653 71.278328 55.840080300000004 C 70.9795228 55.3081894 70.71507270000001 54.83458710000001 70.4551087 54.416244500000005 C 70.4550324 54.4160995 70.4549637 54.41602710000001 70.45484929999999 54.41584400000001 C 70.3687363 54.867961900000005 70.2798081 55.29428870000001 70.1954346 55.69658280000001 C 69.0583039 61.12006380000001 68.5837174 63.40188220000001 89.1787339 84.05511480000001 C 89.1791764 84.05467990000001 89.17961129999999 84.05416880000001 89.1800156 84.0536957 C 91.7124558 81.12089540000001 92.8284684 78.8364868 92.5879517 77.0809784 C 92.26969910000001 74.7726746 89.60882570000001 73.1067886 86.23827370000001 71.0001984 C 83.6415939 69.3746567 80.698288 67.5340118 78.0837021 64.919426 z" stroke-linecap="round" />
</g>
		<g transform="matrix(1 0 0 1 21.637414412384302 25.785036102896115)"  >
<path style="stroke: none; stroke-width: 1; stroke-dasharray: none; stroke-linecap: butt; stroke-dashoffset: 0; stroke-linejoin: miter; stroke-miterlimit: 4; fill: rgb(106,63,191); fill-rule: nonzero; opacity: 1;"  paint-order="stroke"  transform=" translate(-71.63740345000001, -70.16938527571006)" d="M 68.4369354 55.3278122 C 68.61329649999999 54.4868622 68.794693 53.6204529 68.9322433 52.618640899999995 C 68.2077255 52.079421999999994 67.2650451 51.752304099999996 65.8041152 51.5700722 C 65.6800918 54.3684235 64.59844199999999 56.90831 62.7024993 58.804248799999996 C 60.7811355 60.7256126 58.2053947 61.8102951 55.3666648 61.908885899999994 C 55.7984656 65.2301559 57.026569300000006 65.9203872 59.6785087 67.4129791 C 61.8702697 68.6455688 64.8703308 70.3338165 68.7698211 74.2333069 C 71.384407 76.8478928 73.2265853 79.79265600000001 74.8505554 82.390831 C 76.9587173 85.75988770000001 78.6230697 88.4193039 80.9298782 88.7360611 C 82.6883011 88.9795685 84.97406000000001 87.8622055 87.9081421 85.3255005 C 66.6268616 63.980751 67.1596298 61.4193459 68.4369354 55.3278122 z" stroke-linecap="round" />
</g>
		<g transform="matrix(1 0 0 1 -11.537905930110632 24.19519137282964)"  >
<path style="stroke: none; stroke-width: 1; stroke-dasharray: none; stroke-linecap: butt; stroke-dashoffset: 0; stroke-linejoin: miter; stroke-miterlimit: 4; fill: rgb(106,63,191); fill-rule: nonzero; opacity: 1;"  paint-order="stroke"  transform=" translate(-38.46208310750507, -68.57954054564358)" d="M 51.704483 53.0119591 C 47.974720000000005 52.0905419 44.509078900000006 53.5753975 36.549282000000005 61.535194399999995 C 28.960334700000004 69.1241379 24.315717600000006 74.5891724 25.367601300000004 84.38848109999999 C 29.231306000000004 80.86509699999999 34.093429500000006 74.57042689999999 38.7998351 68.4765472 C 43.4307022 62.4803963 47.8862648 56.7126503 51.704483 53.0119591 z" stroke-linecap="round" />
</g>
		<g transform="matrix(1 0 0 1 -16.371656694779816 17.506133007166397)"  >
<path style="stroke: none; stroke-width: 1; stroke-dasharray: none; stroke-linecap: butt; stroke-dashoffset: 0; stroke-linejoin: miter; stroke-miterlimit: 4; fill: rgb(106,63,191); fill-rule: nonzero; opacity: 1;"  paint-order="stroke"  transform=" translate(-33.62833234283589, -61.89048217998034)" d="M 35.278759 60.2646675 C 43.7187233 51.8247032 47.873100300000004 49.7793579 53.2515717 51.5996857 C 54.458045999999996 50.5725251 55.5878678 49.799221100000004 56.622448 49.352336900000005 C 59.6883164 48.027679500000005 60.1412735 46.798080500000005 60.407257099999995 44.9338722 C 60.393104599999994 44.932193700000006 60.37913519999999 44.929676 60.365016999999995 44.9279632 C 60.3063088 44.9207229 60.248039299999995 44.9114379 60.189548599999995 44.9033241 C 60.0818902 44.888347599999996 59.974433999999995 44.8729553 59.867523299999995 44.8549003 C 59.8023416 44.843921599999994 59.737632899999994 44.831375099999995 59.672740999999995 44.8192253 C 59.57298289999999 44.8005867 59.473457399999994 44.781200399999996 59.3744088 44.7598801 C 59.3075829 44.7455101 59.2409974 44.730171199999994 59.1744996 44.7145958 C 59.077693999999994 44.6919098 58.9813081 44.6679268 58.885265399999994 44.642719299999996 C 58.819244399999995 44.6253586 58.75335319999999 44.607723299999996 58.687713699999996 44.589172399999995 C 58.5905953 44.561763799999994 58.494136899999994 44.53252799999999 58.397895899999995 44.5024872 C 58.3352471 44.482917799999996 58.2725106 44.4638062 58.210281499999994 44.443160999999996 C 58.108551199999994 44.40942 58.007785899999995 44.3732567 57.90716569999999 44.336650799999994 C 57.851852599999994 44.31653589999999 57.79617329999999 44.297439499999996 57.74120349999999 44.276466299999996 C 57.61756919999999 44.229248 57.49517459999999 44.178966499999994 57.37334459999999 44.127387899999995 C 57.34279649999999 44.11445989999999 57.31169909999999 44.102805999999994 57.28128069999999 44.0895995 C 57.12939469999999 44.023651 56.97904219999999 43.9542006 56.83020039999999 43.8815612 C 56.789474699999985 43.8616637 56.74964539999999 43.8399963 56.70915619999999 43.819641 C 56.60162369999999 43.7655104 56.49442309999999 43.7106894 56.38862629999999 43.6530761 C 56.33460259999999 43.6236381 56.281513399999994 43.5925445 56.22800469999999 43.5622329 C 56.13688679999999 43.5106544 56.046009299999994 43.458549399999995 55.956257099999995 43.4043655 C 55.899227399999994 43.369915 55.8428919 43.334258999999996 55.78635429999999 43.2987289 C 55.70140099999999 43.2452926 55.61695889999999 43.1910553 55.53328349999999 43.1352462 C 55.47638349999999 43.0973129 55.41989929999999 43.0587386 55.36363629999999 43.019725699999995 C 55.28160119999999 42.9627875 55.20042449999999 42.904628699999996 55.11979699999999 42.84540929999999 C 55.064754699999995 42.805030699999996 55.00981929999999 42.764613999999995 54.95547129999999 42.72317879999999 C 54.873840599999994 42.660949599999995 54.79348399999999 42.59693519999999 54.71341729999999 42.53233709999999 C 54.662609299999986 42.491302399999995 54.61139699999999 42.45088569999999 54.56126049999999 42.408958299999995 C 54.47455619999999 42.3364791 54.389587699999986 42.26168429999999 54.30485179999999 42.186435599999996 C 54.26363399999999 42.1498145 54.22168759999999 42.1143607 54.180946599999984 42.077117799999996 C 54.05650739999999 41.963294899999994 53.93389539999998 41.846919899999996 53.81403379999998 41.727058299999996 C 53.69256999999998 41.605594499999995 53.574733999999985 41.481376499999996 53.45952639999998 41.355258799999994 C 53.42188299999998 41.31411729999999 53.38608199999998 41.2716406 53.349113799999984 41.229965099999994 C 53.27280839999998 41.14395509999999 53.19689969999998 41.057617099999995 53.12353169999999 40.969619599999994 C 53.081363999999986 40.91906339999999 53.040748999999984 40.867542099999994 52.99956549999999 40.816368 C 52.93402139999999 40.7349166 52.869018899999986 40.653137099999995 52.80589709999999 40.5700644 C 52.76415289999999 40.515147999999996 52.72344619999999 40.4595602 52.68277389999999 40.4039343 C 52.62295559999998 40.3221548 52.56415589999999 40.239791700000005 52.50666839999999 40.156555000000004 C 52.467350299999985 40.099651200000004 52.428539599999986 40.0424574 52.39034679999999 39.98493560000001 C 52.33395789999999 39.89994800000001 52.279113999999986 39.81413630000001 52.22520469999999 39.72783640000001 C 52.18951059999999 39.670734200000005 52.153728699999995 39.613792200000006 52.11911419999999 39.556125400000006 C 52.06449149999999 39.46506480000001 52.01202039999999 39.372871200000006 51.96006039999999 39.280387600000005 C 51.92965729999999 39.226238 51.89839959999999 39.17250800000001 51.86892729999999 39.117942500000005 C 51.81111169999999 39.010810500000005 51.756107599999986 38.90233200000001 51.70190459999999 38.79348720000001 C 51.68133189999999 38.75226940000001 51.65948139999999 38.71174590000001 51.63945799999999 38.67027250000001 C 51.56647139999999 38.51915330000001 51.49672729999999 38.36653870000001 51.43068719999999 38.21233720000001 C 51.418888299999985 38.18474170000001 51.40853139999999 38.15658160000001 51.396911899999985 38.12887930000001 C 51.343822799999984 38.00207110000001 51.292301499999986 37.87456870000001 51.24393109999998 37.745811200000006 C 51.223449999999985 37.6912992 51.20492199999998 37.636073800000005 51.18529919999998 37.5812146 C 51.14838439999998 37.4780614 51.11198069999998 37.3747594 51.07809479999998 37.270477 C 51.05770519999998 37.2077023 51.03888349999998 37.1444508 51.01958879999998 37.08131 C 50.98967779999998 36.9834096 50.96062499999998 36.8853833 50.93341479999998 36.7866056 C 50.91515769999998 36.720310000000005 50.89786949999998 36.6537778 50.88083679999998 36.587135100000005 C 50.855884899999985 36.489456000000004 50.83221469999998 36.3914449 50.809871999999984 36.292976200000005 C 50.79459029999998 36.225604800000006 50.779613799999986 36.158145700000006 50.76555279999999 36.09042720000001 C 50.74483519999999 35.990630900000006 50.72603249999999 35.890376800000006 50.70805009999999 35.789882500000004 C 50.69608719999999 35.7231329 50.68377719999999 35.6565092 50.672996799999986 35.58945070000001 C 50.655964199999985 35.48326860000001 50.64149879999999 35.37648380000001 50.62751029999998 35.269592100000004 C 50.61943079999998 35.20800380000001 50.61022209999998 35.146667300000004 50.603145799999986 35.0848043 C 50.60146729999999 35.0699956 50.59894959999998 35.0552976 50.597309299999985 35.0404508 C 48.69348929999998 35.3059232 47.450321399999986 35.7301366 46.10800949999999 38.8378789 C 42.769516199999984 46.5673291 23.434543799999986 65.0443875 12.343479299999984 72.2215955 C 8.883307599999984 74.4607007 7.039453599999984 76.58717320000001 6.863492599999984 78.54169440000001 C 6.668417999999984 80.70733620000001 8.538897599999984 82.4634321 10.040897499999984 83.87438940000001 C 10.306952599999985 84.12409950000001 10.558197199999984 84.36017580000001 10.784347699999984 84.58632640000002 C 11.042595999999984 84.84457380000002 11.304638099999984 85.12995890000002 11.582145899999984 85.43198370000002 C 13.955225199999985 88.01764650000001 16.876535599999983 91.19341250000002 23.733009499999984 85.77875490000002 C 22.0728569 74.4548264 27.2434196 68.3000031 35.278759 60.2646675 z" stroke-linecap="round" />
</g>
		<g transform="matrix(1 0 0 1 26.190151200000003 -22.80855492571007)"  >
<path style="stroke: none; stroke-width: 1; stroke-dasharray: none; stroke-linecap: butt; stroke-dashoffset: 0; stroke-linejoin: miter; stroke-miterlimit: 4; fill: rgb(106,63,191); fill-rule: nonzero; opacity: 1;"  paint-order="stroke"  transform=" translate(-76.19014023761571, -21.57579424710387)" d="M 99.2808685 29.5684967 L 92.2513961 22.5390148 C 92.1333617 22.4209804 91.9781951 22.3562717 91.81434619999999 22.3570003 C 91.64378349999998 22.3562717 91.4884719 22.420980399999998 91.37042989999999 22.5390148 C 90.42702469999999 23.4824276 88.89204399999998 23.4823532 87.9486388 22.5389423 L 87.08358 21.6738815 C 86.311531 20.9018325 85.8789978 19.8848133 85.86565399999999 18.8101616 C 85.83589169999999 16.3385582 84.8559342 14.0139513 83.10633089999999 12.2643509 C 80.67609409999999 9.8341103 77.1124802 8.918931 73.80653379999998 9.8759842 C 73.01084899999998 10.1068754 72.14775849999998 9.8816738 71.55429839999998 9.2882118 L 71.25847629999998 8.9923925 C 70.31506349999998 8.0489807 70.31513979999998 6.513858299999999 71.25855259999999 5.570446899999999 L 71.37804419999999 5.450951999999999 C 71.6209794 5.208022999999999 71.62090309999999 4.812843699999999 71.37804419999999 4.569987199999999 L 68.7350846 1.927019699999999 C 67.4922791 0.6842145 65.8406525 -0.0000727 64.084343 0 C 62.27127840000001 -0.0000732 60.5828095 0.7220755 59.330013300000005 2.0333822 C 56.8807297 4.5941324 56.975639400000006 8.7644165 59.541271200000004 11.330055 L 62.079624200000005 13.8684099 C 62.322479300000005 14.1112659 62.717659000000005 14.1113394 62.960586600000006 13.8684099 L 63.080082000000004 13.748915499999999 C 64.023491 12.8055037 65.5586167 12.8054312 66.50202180000001 13.748842999999999 L 66.51850890000001 13.7653301 C 67.19652560000002 14.4433429 67.38043210000002 15.4554022 66.98700710000001 16.3435896 C 66.41878510000001 17.626590500000002 66.20124050000001 18.834524000000002 65.97093200000002 20.1134413 C 65.47697450000003 22.8567904 64.91692350000002 25.9662092 60.66923520000002 30.2138956 C 57.33982850000002 33.5433004 54.73215480000002 34.4094732 52.38030240000002 34.7958639 C 52.38254540000002 34.8171842 52.38389580000002 34.8386686 52.38630290000002 34.8599699 C 52.39261240000002 34.915885700000004 52.40027230000002 34.971477300000004 52.40756980000002 35.027210000000004 C 52.41880410000002 35.1133649 52.43063730000002 35.1993597 52.44419090000002 35.28495 C 52.453418700000014 35.3431279 52.46359630000001 35.4010885 52.47388070000002 35.4589383 C 52.488655000000016 35.5419232 52.504375400000015 35.6245381 52.52131650000002 35.7068822 C 52.53326410000002 35.764972400000005 52.54559320000002 35.8229673 52.55865090000002 35.8807447 C 52.577125500000015 35.9627988 52.597095400000015 36.0444486 52.61775960000002 36.1258466 C 52.63214860000002 36.1824376 52.64635460000002 36.2390668 52.66176590000002 36.2952955 C 52.684764700000024 36.3792417 52.70971280000002 36.4625547 52.73497380000002 36.5456999 C 52.75083910000002 36.5978239 52.76597970000002 36.6501692 52.78273760000002 36.701980400000004 C 52.812629600000015 36.7944296 52.84505830000002 36.8860205 52.87779600000002 36.9774473 C 52.892677100000014 37.0190313 52.90637190000002 37.0610693 52.92185580000002 37.102413 C 52.971153100000016 37.2341078 53.02313220000002 37.364803099999996 53.078285100000016 37.4940718 C 53.08660110000002 37.5134772 53.09592040000002 37.5323904 53.104362400000014 37.5517424 C 53.15211100000001 37.6616438 53.20151890000001 37.7709082 53.25353230000001 37.8789481 C 53.27507010000001 37.9237212 53.29834350000001 37.9677123 53.32062900000001 38.0121764 C 53.36170180000001 38.0940284 53.40299210000001 38.1758078 53.44643390000001 38.2564544 C 53.47309860000001 38.305953900000006 53.50111000000001 38.3547553 53.52868640000001 38.403781800000004 C 53.57056030000001 38.47826380000001 53.61285390000001 38.55247490000001 53.65678770000001 38.625846800000005 C 53.68706500000001 38.67640300000001 53.71825010000001 38.726409800000006 53.74945430000001 38.776401500000006 C 53.793647600000014 38.84717940000001 53.83871060000001 38.917526200000005 53.88483410000001 38.98717500000001 C 53.91775490000001 39.03683850000001 53.951095400000014 39.086227400000006 53.984962300000014 39.135303500000006 C 54.032745200000015 39.20453640000001 54.08176790000002 39.27303700000001 54.131450500000014 39.341102600000006 C 54.16602690000001 39.388446800000004 54.200569000000016 39.43582920000001 54.23609910000001 39.482589700000005 C 54.28886020000001 39.552021 54.343265400000014 39.6203956 54.39801390000001 39.6884956 C 54.43299470000001 39.7320137 54.46746430000001 39.7758941 54.50328430000001 39.818862900000006 C 54.56496410000001 39.89279940000001 54.62876110000001 39.9652748 54.692809900000015 40.037570900000006 C 54.724033200000015 40.072734800000006 54.754199800000016 40.1085891 54.785987700000014 40.143405900000005 C 54.883014500000016 40.249622300000006 54.98224620000001 40.354217500000004 55.08456020000001 40.456531500000004 C 55.18537880000001 40.5573501 55.288444300000016 40.6551971 55.393108200000015 40.750930800000006 C 55.42759690000001 40.78246310000001 55.463214700000016 40.81250000000001 55.49814210000002 40.843521100000004 C 55.56929000000002 40.906681000000006 55.64065160000002 40.9695473 55.71345890000001 41.0303879 C 55.755535000000016 41.065570900000004 55.798465600000014 41.099384300000004 55.841106300000014 41.1337815 C 55.908550100000014 41.1881638 55.97628390000001 41.2421876 56.045043800000016 41.2946015 C 56.09083920000002 41.3294907 56.13721450000001 41.3635064 56.183593600000016 41.3975182 C 56.25122060000002 41.4471245 56.31930530000002 41.4959832 56.388133900000014 41.5437317 C 56.43569940000001 41.5767059 56.483516600000016 41.6092072 56.531627600000014 41.6412697 C 56.601535700000014 41.6878662 56.67208090000001 41.733242100000005 56.74313350000001 41.777889300000005 C 56.791210100000015 41.8080903 56.839229500000016 41.83834840000001 56.88783260000001 41.867656800000006 C 56.96195220000001 41.91237650000001 57.03694530000001 41.955417700000005 57.11217880000001 41.998001200000004 C 57.15866850000001 42.0243188 57.204864500000006 42.05122000000001 57.251808200000006 42.07671750000001 C 57.33541110000001 42.122165800000005 57.42010880000001 42.16542830000001 57.505024000000006 42.20832070000001 C 57.54467400000001 42.22834790000001 57.58380890000001 42.24939350000001 57.6236802 42.268837100000006 C 57.749157000000004 42.3299676 57.8757249 42.388694900000004 58.0037194 42.4441034 C 58.0045243 42.4444658 58.0053788 42.44477860000001 58.006199 42.445121900000004 C 58.133098700000005 42.500019200000004 58.2613488 42.551670200000004 58.3905832 42.60087600000001 C 58.4332048 42.617126600000006 58.476482600000004 42.63169880000001 58.5193788 42.64730850000001 C 58.6073953 42.67937100000001 58.6955224 42.71103300000001 58.784538399999995 42.74048630000001 C 58.83635339999999 42.757610500000006 58.88871399999999 42.77331560000001 58.940857099999995 42.789528000000004 C 59.022014799999994 42.814808000000006 59.103321199999996 42.839573 59.1852075 42.8626634 C 59.2410547 42.8783838 59.2972604 42.893081800000004 59.353469999999994 42.9077836 C 59.43307889999999 42.9286309 59.5129434 42.948635200000005 59.59318939999999 42.9673844 C 59.65078749999999 42.980842700000004 59.708526799999994 42.9937935 59.76641479999999 43.006157 C 59.846534899999995 43.023285 59.92701739999999 43.039096900000004 60.007701999999995 43.0541955 C 60.06595239999999 43.0650292 60.124206699999995 43.0759355 60.182766099999995 43.085731599999995 C 60.26520169999999 43.099517899999995 60.348095099999995 43.111465499999994 60.4310419 43.12306219999999 C 60.4880716 43.131034899999996 60.544952599999995 43.13958749999999 60.602256999999994 43.14655309999999 C 60.61859919999999 43.14852529999999 60.635139699999996 43.14970789999999 60.651500899999995 43.15158849999999 C 61.04040549999999 40.76657869999999 61.90922569999999 38.128314999999986 65.2464373 34.79110339999999 C 69.4986498 30.53889659999999 72.6737215 29.96192169999999 75.47513599999999 29.45279319999999 C 75.75768299999999 29.401506499999993 76.0389101 29.350368599999992 76.31941239999999 29.29587369999999 C 76.98735059999998 29.16601949999999 77.6819307 29.20315179999999 78.3282091 29.40325929999999 C 78.9721529 29.600154899999993 79.56809249999999 29.95856669999999 80.04855359999999 30.43902779999999 C 80.5077058 30.898185699999992 80.75924699999999 31.50689319999999 80.756981 32.15302659999999 C 80.75953679999999 32.79259489999999 80.507927 33.40152359999999 80.0486222 33.86082459999999 C 79.8056946 34.10375599999999 79.8057633 34.49893569999999 80.0486222 34.74179079999999 L 87.0780869 41.77127079999999 C 88.0368958 42.73007589999999 89.5968934 42.73007589999999 90.555626 41.77134709999999 L 99.2809373 33.046032 C 100.2396698 32.0872993 100.2396698 30.5273018 99.2808685 29.5684967 z" stroke-linecap="round" />
</g>
		<g transform="matrix(1 0 0 1 -17.990620087615703 -13.975673743249118)"  >
<path style="stroke: none; stroke-width: 1; stroke-dasharray: none; stroke-linecap: butt; stroke-dashoffset: 0; stroke-linejoin: miter; stroke-miterlimit: 4; fill: rgb(106,63,191); fill-rule: nonzero; opacity: 1;"  paint-order="stroke"  transform=" translate(-32.00936895, -30.408675429564823)" d="M 57.3351517 51.0017891 C 56.5139237 51.356487300000005 55.5319596 52.0177994 54.4162865 52.9677811 L 53.7223702 53.5583229 L 52.9549981 54.3021736 C 52.731689499999995 54.5186233 52.5059548 54.742809300000005 52.2781564 54.973548900000004 C 53.299946 56.6713524 54.2030374 58.393348700000004 54.9678041 60.1205063 C 57.4822732 60.1130257 59.7621805 59.20467 61.4325677 57.534309400000005 C 63.0774728 55.889381400000005 63.984356 53.646843000000004 64.0187379 51.1711426 C 62.7466622 50.6078911 61.4770089 49.9701996 60.217598100000004 49.2648316 C 59.5262604 49.8852921 58.5971184 50.4564896 57.3351517 51.0017891 z M 51.7481079 9.5214977 C 50.9547729 8.097730599999998 49.9582519 6.787427899999999 48.7854004 5.626478199999999 C 42.0412598 -1.0369129000000008 31.0270996 -0.932359700000001 24.2321777 5.862562199999999 L 12.7877807 17.307020199999997 C 11.4943237 18.600416199999998 11.375488200000001 20.611219399999996 12.409790000000001 22.0495739 C 12.415344200000002 22.0606823 12.414611800000001 22.0736828 12.421447700000002 22.084425 C 12.679504300000001 22.4904309 12.8859252 23.7676525 12.535949700000002 24.3188 C 12.391906700000002 24.5293103 12.235534700000002 24.7318249 12.052673300000002 24.9146862 C 11.593994100000002 25.3734264 10.984436000000002 25.624342 10.337524400000003 25.622877099999997 C 9.717468200000003 25.624402999999997 9.121398900000003 25.386793099999995 8.667175300000004 24.950513799999996 C 8.389282200000004 24.684583599999996 7.996337900000004 24.668165199999997 7.7498169000000035 24.914686199999995 L 0.720336900000003 31.944227199999993 C -0.24011229999999695 32.90467829999999 -0.24011229999999695 34.46186829999999 0.720336900000003 35.42237849999999 L 9.445556600000003 44.14759819999999 C 10.403259200000003 45.10530079999999 11.963012700000004 45.10530079999999 12.922241200000004 44.14607229999999 L 19.951721200000005 37.11665339999999 C 20.069763200000004 36.99861139999999 20.135498100000007 36.84321589999999 20.134033200000005 36.68031309999999 C 20.135498000000005 36.51448059999999 20.074218700000003 36.36360169999999 19.962219200000003 36.245559699999994 C 19.016479500000003 35.261062599999995 19.013488700000003 33.754959099999994 19.953247000000005 32.81520079999999 L 20.314941300000005 32.45350649999999 C 20.958435000000005 31.810010899999988 21.630737200000006 31.43910029999999 22.156982300000003 31.881422099999988 C 22.8815917 32.60609439999999 23.816833400000004 32.98860169999999 24.767028700000004 33.03340149999999 C 24.776000900000003 33.03340149999999 24.784973000000004 33.03334049999999 24.795410000000004 33.03486629999999 C 25.875610200000004 33.08418269999999 27.067932000000003 33.32319639999999 28.340820200000003 33.73561089999999 C 32.0639647 34.94276419999999 36.48040760000001 37.63209529999999 40.808654700000005 41.40455619999999 C 41.1601562 41.710952699999986 41.50671380000001 42.02259819999999 41.850402700000004 42.33680719999999 C 43.055786000000005 40.71772759999999 43.9581298 39.284133899999986 44.458618 38.12544249999999 C 44.6726073 37.62983699999999 44.889648300000005 37.18733209999999 45.111266900000004 36.78865049999999 C 41.416137500000005 32.51106259999999 38.7791136 28.16401479999999 37.5859983 24.493360499999987 C 37.1810911 23.245862899999988 36.9435422 22.076002099999986 36.8867795 21.012220399999986 C 36.8853147 20.953931799999985 36.883788800000005 20.895704299999988 36.8778073 20.838941599999988 C 36.8181149 19.915601799999987 36.4356076 19.01020619999999 35.7319333 18.30653189999999 L 32.3625485 14.93708609999999 C 30.659057300000004 13.23371699999999 31.0793454 10.339429899999988 33.225463500000004 9.24513049999999 C 39.106567000000005 6.246412199999989 45.790588 6.941358499999989 51.1818234 10.08173939999999 C 51.4193722 10.22071649999999 51.5927121 10.10420029999999 51.6778561 10.02204699999999 C 51.7570801 9.9308605 51.8825684 9.7635632 51.7481079 9.5214977 z" stroke-linecap="round" />
</g>
		<g transform="matrix(1 0 0 1 28.22968788285573 -23.094951380894628)"  >
<path style="stroke: none; stroke-width: 1; stroke-dasharray: none; stroke-linecap: butt; stroke-dashoffset: 0; stroke-linejoin: miter; stroke-miterlimit: 4; fill: rgb(244,244,244); fill-rule: nonzero; opacity: 1;"  paint-order="stroke"  transform=" translate(-78.22967692047143, -21.289397791919313)" d="M 98.0108871 31.7745934 L 89.28411100000001 40.5013657 C 89.025856 40.7596245 88.60713190000001 40.7596245 88.3488693 40.5013657 L 87.8173294 39.9698182 C 87.3878784 39.5403748 87.3803558 38.846122799999996 87.7986908 38.4058495 C 94.2474823 31.618909900000002 92.12702180000001 28.967306200000003 90.00490570000001 25.567236 C 89.8610153 25.3366948 90.00238800000001 25.0361176 90.27136990000001 24.9973527 C 90.53460690000001 24.9594174 90.7950744 24.8966619 91.0487671 24.80892 C 91.46470640000001 24.6650678 91.9251328 24.7535478 92.2363358 25.0647527 L 98.0109025 30.8393327 C 98.269371 31.0978012 98.2678604 31.5176201 98.0108871 31.7745934 z M 58.6327744 40.7276649 C 58.331962600000004 40.5958862 58.182338800000004 40.255523600000004 58.2899933 39.945259 C 60.400856 33.8618583 67.0601807 26.1089381 73.3157578 24.1474704 C 79.631073 22.167818 81.5165711 12.830017999999999 78.8512116 11.6975154 C 79.9583207 12.0635871 80.9832383 12.6821269 81.8363343 13.5352239 C 82.7297745 14.4286632 83.3751603 15.5043544 83.7352448 16.6831817 C 83.7367402 16.6846771 83.7382355 16.6861724 83.7382355 16.6891631 C 83.8816757 17.448135299999997 84.0027008 18.2414836 84.077385 19.030328599999997 C 84.077385 19.033321199999996 84.077385 19.036312 84.077385 19.039302699999997 C 84.0833664 19.185716499999998 84.093834 19.330634899999996 84.11322030000001 19.472543599999998 C 84.36273200000001 23.050807799999998 81.6406175 26.286945199999998 76.2201768 27.488147599999998 C 76.21868140000001 27.489642999999997 76.2171861 27.4911383 76.2127 27.489642999999997 C 76.1350251 27.501588699999996 76.0558396 27.515048899999996 75.9766465 27.5314998 C 75.7047349 27.5852832 75.4298402 27.636075899999998 75.1533891 27.6853542 C 75.0622712 27.7017688 74.9711152 27.7182197 74.878502 27.7361297 C 74.8620912 27.7376613 74.8456422 27.7421474 74.8292085 27.743625599999998 C 74.7305986 27.758561999999998 74.63347639999999 27.7749939 74.54084789999999 27.795913699999996 C 74.51995099999999 27.798940699999996 74.5005418 27.803390499999995 74.47960679999998 27.809371999999996 C 71.69020859999999 28.336757699999996 68.27182019999998 29.224233699999996 63.97642529999999 33.5196305 C 61.38164909999999 36.1144028 60.13685239999999 38.3792153 59.47894679999999 40.3576127 C 59.36318599999999 40.7057267 58.968803499999986 40.8748704 58.63277829999999 40.727664999999995 L 58.6327744 40.727664999999995 z M 64.0332336 11.3120737 C 63.838020300000004 11.347824099999999 63.6448745 11.397148099999999 63.4552459 11.460225099999999 C 62.8874549 11.649092699999999 62.2624931 11.5104771 61.8393707 11.0873566 L 61.8393707 11.0873556 C 61.64079280000001 10.888779600000001 61.6830787 10.5574026 61.9230499 10.4115286 C 67.196701 7.2057605 65.9102707 2.981884000000001 63.1741256 1.8831024000000003 C 63.46996300000001 1.8263278000000003 63.774772600000006 1.7964723000000002 64.0840148 1.7979314000000004 C 65.36143480000001 1.7964360000000004 66.56114190000001 2.2939486000000002 67.46504970000001 3.1978569000000006 L 68.56703940000001 4.2998514000000005 C 69.00057210000001 4.7333841 69.15551750000002 5.3728227 68.96852100000001 5.956717 L 68.96402730000001 5.9707498 C 68.96224970000002 5.9752969 68.95930470000002 5.9828739 68.95753470000001 5.9874234 C 67.2334518 9.7224045 66.387825 10.3947563 64.0332336 11.3120737 z" stroke-linecap="round" />
</g>
		<g transform="matrix(1 0 0 1 -25.653311787615714 -24.289714466929926)"  >
<path style="stroke: none; stroke-width: 1; stroke-dasharray: none; stroke-linecap: butt; stroke-dashoffset: 0; stroke-linejoin: miter; stroke-miterlimit: 4; fill: rgb(244,244,244); fill-rule: nonzero; opacity: 1;"  paint-order="stroke"  transform=" translate(-24.346677249999992, -20.094634705884015)" d="M 42.3822441 36.3152885 C 42.3322334 36.252716 42.2834854 36.1900405 42.2338867 36.127418500000005 C 42.0697174 35.92020410000001 41.9065285 35.71298600000001 41.7471351 35.505565600000004 C 41.7310905 35.4846725 41.715641 35.4637832 41.6996497 35.44289010000001 C 40.7435302 34.194904300000005 39.875694200000005 32.94567860000001 39.1054839 31.712343100000005 C 39.085185900000006 31.679845700000005 39.064166900000004 31.647243400000004 39.0439719 31.614746000000004 C 38.9140548 31.405414500000003 38.788265100000004 31.196908900000004 38.6641005 30.988662600000005 C 38.630779100000005 30.932796400000004 38.596885500000006 30.876878600000005 38.563976100000005 30.821166900000005 C 38.449561900000006 30.627054100000006 38.3385504 30.433818700000003 38.22924400000001 30.240840800000004 C 38.18960170000001 30.170892600000006 38.14980290000001 30.100942500000006 38.11085490000001 30.031097300000006 C 38.009078800000005 29.848693700000005 37.910011100000006 29.667064600000007 37.81295370000001 29.485847400000004 C 37.76993540000001 29.405582400000004 37.72737480000001 29.325471800000006 37.68531010000001 29.245412800000004 C 37.59480260000001 29.073223100000003 37.50623300000001 28.901601800000005 37.42008560000001 28.730649900000003 C 37.37525910000001 28.641717900000003 37.33164570000001 28.5531463 37.288005500000004 28.464576700000002 C 37.207919700000005 28.3018265 37.12889070000001 28.139490100000003 37.052905700000004 27.9780292 C 37.007411600000005 27.881464 36.96392410000001 27.7855682 36.9198948 27.6894664 C 36.849769200000004 27.5362586 36.779819100000005 27.383104200000002 36.7134815 27.2311362 C 36.6676212 27.126213 36.6247021 27.022373100000003 36.5807262 26.9181212 C 36.5205532 26.7754897 36.459632400000004 26.632549100000002 36.4029422 26.4911555 C 36.3568492 26.3762244 36.3146281 26.2628936 36.270885 26.148891300000003 C 36.2209506 26.018794900000003 36.1692615 25.888027 36.122371199999996 25.759170400000002 C 36.0719218 25.620407000000004 36.0265803 25.483861800000003 35.9796901 25.3465956 C 35.9459033 25.2476557 35.908759599999996 25.1473234 35.8768306 25.0491579 C 35.4211307 23.643272200000002 35.156684399999996 22.3180635 35.0924335 21.1093328 L 35.090911399999996 21.0839536 L 35.090911399999996 21.0600183 L 35.089209999999994 21.0110643 L 35.086451999999994 20.9898622 L 35.0851626 20.9600465 L 35.0847468 20.954992 C 35.081344099999995 20.9025819 35.0747141 20.850738200000002 35.0675692 20.799051000000002 C 35.0479426 20.658225700000003 35.0159335 20.520133700000002 34.9697413 20.3872506 C 34.8642764 20.084604000000002 34.6915202 19.807182 34.4613986 19.5770623 L 31.077836500000004 16.193576500000002 C 31.037471300000004 16.150451300000004 30.997184300000004 16.107328100000004 30.956819000000003 16.0641515 C 30.936364600000005 16.0425374 30.915473400000003 16.0212323 30.895690400000003 15.9992578 C 30.8635802 15.9634578 30.832990100000004 15.9266269 30.801885100000003 15.890105 C 30.765285000000002 15.8471858 30.728841300000003 15.8042161 30.693788000000005 15.7604721 C 30.672097600000004 15.733287599999999 30.651050000000005 15.705637699999999 30.629901400000005 15.678091799999999 C 30.583913300000006 15.618356499999999 30.539292800000005 15.558003199999998 30.496142900000006 15.496823099999999 C 30.485696400000005 15.481915299999999 30.475225000000005 15.4671104 30.464933000000006 15.452099599999999 C 29.299636400000004 13.764611999999998 29.201755100000007 11.561846499999998 30.176007800000004 9.8009022 C 30.185809700000004 9.7831057 30.195584800000006 9.7652577 30.205566000000005 9.7475641 C 30.238837800000006 9.6890667 30.273555300000005 9.6312921 30.309199900000003 9.5738266 C 30.329213700000004 9.5413797 30.348868900000003 9.5087784 30.369554100000002 9.476796 C 30.4602566 9.33745 30.5737019 9.2086 30.5820236 9.0326185 C 30.5912266 8.8379869 30.7633991 8.7078428 30.956943499999998 8.6853266 C 31.018009199999998 8.6782227 31.0381184 8.645431499999999 31.065946599999997 8.617603299999999 C 31.068500499999995 8.615023599999999 31.071363499999997 8.6128054 31.0739155 8.610226599999999 C 31.258150099999998 8.427411 31.456699399999998 8.257645599999998 31.668764099999997 8.1021185 C 31.693414699999998 8.084015899999999 31.718582099999995 8.0666361 31.743543599999995 8.0489473 C 31.825080799999995 7.9911632 31.908267899999995 7.9358658 31.992992399999995 7.8828635 C 32.01959229999999 7.8662243 32.045822099999995 7.849132 32.072723399999994 7.8329496 C 32.182365399999995 7.7668695 32.2939453 7.7031626 32.4093628 7.6443047 C 32.6789436 7.5068316 32.9512596 7.378025 33.225021399999996 7.2538089 C 33.2397728 7.2472061000000005 33.2544251 7.2402939 33.26920319999999 7.2336911 C 35.77804569999999 6.1031112 38.45662689999999 5.5289228999999995 41.24673839999999 5.5289228999999995 C 43.14076989999999 5.5289228999999995 45.04187009999999 5.7976788 46.89661789999999 6.3204888 C 46.71125029999999 6.1567076 46.52275849999999 5.998239399999999 46.33137889999999 5.844981499999999 C 46.30672449999999 5.8252247 46.28108589999999 5.806860799999999 46.25632469999999 5.787258499999999 C 46.08895869999999 5.654995799999999 45.91999429999999 5.525621299999999 45.74842449999999 5.401302199999999 C 45.70658869999999 5.371022099999999 45.66366959999999 5.342599299999999 45.62157439999999 5.312731599999999 C 45.46393199999999 5.200947599999999 45.305389399999996 5.091072399999999 45.14449689999999 4.985994699999999 C 45.09948729999999 4.956591499999999 45.053577399999995 4.928787599999999 45.00828549999999 4.8998482999999995 C 44.847289999999994 4.7970918 44.68526459999999 4.6964501 44.52125169999999 4.600296299999999 C 44.4775849 4.574607199999999 44.4332466 4.550207899999999 44.38932419999999 4.524983199999999 C 44.22074509999999 4.428416499999999 44.05108259999999 4.3344295 43.87961579999999 4.2447756 C 43.83950809999999 4.223780499999999 43.79898839999999 4.2035592 43.75870129999999 4.1829255 C 43.58145519999999 4.0922396999999995 43.40297319999999 4.004649 43.22294229999999 3.9212882999999996 C 43.18634409999999 3.904317 43.14953989999999 3.8878097999999994 43.11278529999999 3.8710963999999994 C 42.92798229999999 3.7873229999999993 42.74191659999999 3.7071089999999995 42.554508199999994 3.6309699999999996 C 42.520103399999996 3.6169905999999994 42.485645299999995 3.6031658999999996 42.45113369999999 3.5894443999999996 C 42.26161189999999 3.5140277999999996 42.07085419999999 3.4426346 41.878959599999995 3.3750588999999995 C 41.843700399999996 3.3626267999999997 41.808494499999995 3.3501433999999994 41.77313229999999 3.3380210999999997 C 41.58384319999999 3.2728696 41.3933906 3.2118966999999996 41.20209119999999 3.1543284 C 41.16110609999999 3.1419995 41.12025069999999 3.1294128999999997 41.07913969999999 3.1174453 C 40.89653009999999 3.0641068 40.71288679999999 3.0150498 40.52865219999999 2.9685722 C 40.47603609999999 2.9553149000000003 40.42360309999999 2.9415417 40.37080379999999 2.9288519 C 40.20217509999999 2.8882032 40.03274529999999 2.8516813 39.86297989999999 2.8166555 C 39.79217909999999 2.8021601 39.72161099999999 2.7868911 39.650554699999994 2.7733761 C 39.50343329999999 2.7451593 39.35569769999999 2.7208627 39.207904899999996 2.6969277000000003 C 39.11232 2.6815554 39.0169412 2.6653062000000003 38.920890899999996 2.651688 C 38.801780799999996 2.6347167000000002 38.6822587 2.6210467 38.5628396 2.6067578 C 38.4374658 2.591953 38.312267399999996 2.5764777 38.186222199999996 2.5646648 C 38.098320099999995 2.556308 38.01016249999999 2.5506336000000003 37.9221612 2.5437729 C 37.765960799999995 2.5317537 37.609710799999995 2.5198378 37.4525338 2.5124094 C 37.3921815 2.5095207 37.331722299999996 2.5086438 37.2713433 2.5064258 C 37.0901528 2.4999260000000003 36.9087296 2.4947159 36.7264291 2.4943549000000003 C 36.686607499999994 2.4942517000000004 36.646755299999995 2.4956445 36.606907 2.4958507 C 36.3944322 2.4970373 36.1824685 2.5018863000000002 35.9713861 2.5113262 C 35.9008943 2.5145761 35.8304559 2.519528 35.7600175 2.5237066 C 35.5873376 2.5337140000000002 35.4150697 2.5460943 35.2434732 2.5616211 C 35.1367723 2.5714737 35.030224 2.5830287 34.923702399999996 2.5950481 C 34.7947389 2.609337 34.6660883 2.6250187 34.537849599999994 2.6424543000000003 C 34.395527099999995 2.6620049000000003 34.253410499999994 2.6833092 34.11155339999999 2.7067803 C 34.02471179999999 2.7210177 33.938125799999995 2.7361318000000003 33.85166949999999 2.7517620000000003 C 33.676540599999996 2.7836929 33.50166719999999 2.8177386 33.327469099999995 2.8556534000000005 C 33.27866769999999 2.8661767000000005 33.230125699999995 2.8773705000000005 33.181484499999996 2.8883580000000006 C 32.9774135 2.9347843000000005 32.7738612 2.984047500000001 32.5713923 3.0386242000000006 C 32.5557101 3.0428540000000006 32.5401309 3.0473935000000005 32.524502 3.0516235000000007 C 30.660053499999997 3.560402500000001 28.868131799999997 4.415830100000001 27.2542555 5.6176485000000005 C 27.1724951 5.6787247 27.09326 5.743875900000001 27.012531499999998 5.806602900000001 C 26.894659299999997 5.897959200000001 26.7758601 5.987716600000001 26.660026799999997 6.0828385 C 26.2601168 6.4119997 25.873748999999997 6.7621045 25.502701099999996 7.1332044 L 18.423303899999997 14.2125739 C 23.366838799999996 12.8292788 29.4182304 19.3883666 31.148172699999996 21.118308900000002 C 32.677704199999994 22.647840400000003 32.7811702 27.8441523 42.4835475 37.3071212 C 42.608108800000004 37.428607899999996 42.8180583 37.3898734 42.8888133 37.230914999999996 C 42.8895801 37.2291908 42.8903468 37.2274665 42.891113600000004 37.22574229999999 C 42.941025100000004 37.113445199999994 42.9244045 36.98328779999999 42.846733400000005 36.888053899999996 C 42.7052956 36.7146454 42.4860916 36.4451866 42.3822441 36.3152885 z M 17.5732193 35.5120201 C 17.6028328 35.6346016 17.638034800000003 35.7561302 17.6788235 35.876247400000004 C 17.8308869 36.324054700000005 17.709074 36.819404600000006 17.3746701 37.153808600000005 L 17.2003251 37.32815550000001 C 16.7165585 37.81192010000001 15.9338685 37.817413300000005 15.441043 37.342884000000005 C 9.9481622 32.0539016 7.221454700000001 31.541908200000005 3.9079276000000007 34.41645810000001 C 3.409821600000001 34.848575600000004 2.6626299000000007 34.82481000000001 2.1963495000000006 34.35853190000001 L 1.9902543000000006 34.15243530000001 C 1.7322307000000006 33.89441300000001 1.7322307000000006 33.47219090000001 1.9902543000000006 33.21416850000001 L 7.6235427 27.580879200000005 C 8.0281562 27.176265700000005 8.6574887 27.093984600000006 9.1489362 27.387077300000005 C 14.6758375 30.6832504 16.802927 33.9131088 17.5732193 35.5120201 z" stroke-linecap="round" />
</g>
</g>
</g>
</g>
</g>
<g transform="matrix(1.180110562047191 2.86371280126748 -2.8637128012674804 1.1801105620471912 102.65994130911326 830.0034057861238)" id="tagline-330ed1b3-9702-4b58-9f70-5f9b95140489-logo-0"  >
<g style=""  paint-order="stroke"   >
		<g transform="matrix(1 0 0 1 0 0)" id="33d140c2-054b-4904-967d-c80dbfa963e9-path-0"  >
<path style="stroke: none; stroke-width: 0; stroke-dasharray: none; stroke-linecap: butt; stroke-dashoffset: 0; stroke-linejoin: miter; stroke-miterlimit: 4; fill: rgb(106,63,191); fill-rule: nonzero; opacity: 1;"  paint-order="stroke"  transform=" translate(-8.385, 13.65)" d="M 6.75 0.39 L 10.02 0.39 C 13.92 0.39 15.99 -1.44 15.99 -5.58 L 15.99 -11.31 C 15.99 -15.44 13.92 -17.28 10.02 -17.28 L 8.19 -17.28 C 7.76 -17.28 7.41 -17.63 7.41 -18.06 L 7.41 -20.67 C 7.41 -21.18 7.64 -21.45 8.19 -21.45 L 8.58 -21.45 C 9.09 -21.45 9.36 -21.22 9.36 -20.67 L 9.36 -18.91 C 9.36 -18.68 9.52 -18.52 9.75 -18.52 L 15.6 -18.52 C 15.83 -18.52 15.99 -18.68 15.99 -18.91 L 15.99 -21.72 C 15.99 -25.62 14.16 -27.69 10.02 -27.69 L 6.75 -27.69 C 2.85 -27.69 0.78 -25.86 0.78 -21.72 L 0.78 -17.28 C 0.78 -13.14 2.85 -11.31 6.75 -11.31 L 8.58 -11.31 C 9.01 -11.31 9.36 -10.96 9.36 -10.53 L 9.36 -6.63 C 9.36 -6.2 9.01 -5.85 8.58 -5.85 L 8.19 -5.85 C 7.76 -5.85 7.41 -6.2 7.41 -6.63 L 7.41 -9.55 C 7.41 -9.79 7.25 -9.95 7.02 -9.95 L 1.17 -9.95 C 0.94 -9.95 0.78 -9.79 0.78 -9.55 L 0.78 -5.58 C 0.78 -1.68 2.61 0.39 6.75 0.39 Z" stroke-linecap="round" />
</g>
</g>
</g>
<g transform="matrix(1.6285841198813809 2.6346206010104694 -2.6346206010104702 1.628584119881381 145.6438671365753 914.1515998002163)" id="tagline-330ed1b3-9702-4b58-9f70-5f9b95140489-logo-1"  >
<g style=""  paint-order="stroke"   >
		<g transform="matrix(1 0 0 1 0 0)" id="47825ec7-5779-4c85-966a-da29825d2b6d-path-0"  >
<path style="stroke: none; stroke-width: 0; stroke-dasharray: none; stroke-linecap: butt; stroke-dashoffset: 0; stroke-linejoin: miter; stroke-miterlimit: 4; fill: rgb(106,63,191); fill-rule: nonzero; opacity: 1;"  paint-order="stroke"  transform=" translate(-8.385, 13.65)" d="M 9.75 0 L 15.6 0 C 15.83 0 15.99 -0.16 15.99 -0.39 L 15.99 -26.91 C 15.99 -27.14 15.83 -27.3 15.6 -27.3 L 9.75 -27.3 C 9.52 -27.3 9.36 -27.14 9.36 -26.91 L 9.36 -16.96 C 9.36 -16.73 9.2 -16.57 8.97 -16.57 L 7.8 -16.57 C 7.57 -16.57 7.41 -16.73 7.41 -16.96 L 7.41 -26.91 C 7.41 -27.14 7.25 -27.3 7.02 -27.3 L 1.17 -27.3 C 0.94 -27.3 0.78 -27.14 0.78 -26.91 L 0.78 -0.39 C 0.78 -0.16 0.94 0 1.17 0 L 7.02 0 C 7.25 0 7.41 -0.16 7.41 -0.39 L 7.41 -10.34 C 7.41 -10.57 7.57 -10.72 7.8 -10.72 L 8.97 -10.72 C 9.2 -10.72 9.36 -10.57 9.36 -10.34 L 9.36 -0.39 C 9.36 -0.16 9.52 0 9.75 0 Z" stroke-linecap="round" />
</g>
</g>
</g>
<g transform="matrix(2.034004820664802 2.335880205899037 -2.335880205899037 2.034004820664802 201.69632996657413 990.2218200472727)" id="tagline-330ed1b3-9702-4b58-9f70-5f9b95140489-logo-2"  >
<g style=""  paint-order="stroke"   >
		<g transform="matrix(1 0 0 1 0 0)" id="e09b4db4-03f0-42db-aac5-95da49e43a25-path-0"  >
<path style="stroke: none; stroke-width: 0; stroke-dasharray: none; stroke-linecap: butt; stroke-dashoffset: 0; stroke-linejoin: miter; stroke-miterlimit: 4; fill: rgb(106,63,191); fill-rule: nonzero; opacity: 1;"  paint-order="stroke"  transform=" translate(-8.385, 13.65)" d="M 6.75 0.39 L 10.02 0.39 C 14.16 0.39 15.99 -1.68 15.99 -5.58 L 15.99 -21.72 C 15.99 -25.62 14.16 -27.69 10.02 -27.69 L 6.75 -27.69 C 2.85 -27.69 0.78 -25.86 0.78 -21.72 L 0.78 -5.58 C 0.78 -1.44 2.85 0.39 6.75 0.39 Z M 8.58 -5.85 L 8.19 -5.85 C 7.76 -5.85 7.41 -6.2 7.41 -6.63 L 7.41 -20.67 C 7.41 -21.18 7.64 -21.45 8.19 -21.45 L 8.58 -21.45 C 9.09 -21.45 9.36 -21.22 9.36 -20.67 L 9.36 -6.63 C 9.36 -6.2 9.01 -5.85 8.58 -5.85 Z" stroke-linecap="round" />
</g>
</g>
</g>
<g transform="matrix(2.4422945718179507 1.9049171035158332 -1.9049171035158332 2.4422945718179507 282.574514974343 1066.8417005712795)" id="tagline-330ed1b3-9702-4b58-9f70-5f9b95140489-logo-3"  >
<g style=""  paint-order="stroke"   >
		<g transform="matrix(1 0 0 1 0 0)" id="b2759e26-36ec-4c18-bfac-117eafabd7be-path-0"  >
<path style="stroke: none; stroke-width: 0; stroke-dasharray: none; stroke-linecap: butt; stroke-dashoffset: 0; stroke-linejoin: miter; stroke-miterlimit: 4; fill: rgb(106,63,191); fill-rule: nonzero; opacity: 1;"  paint-order="stroke"  transform=" translate(-13.260000000000002, 13.65)" d="M 14.78 0 L 21.53 0 C 21.72 0 21.84 -0.12 21.88 -0.31 L 26.05 -26.83 C 26.09 -27.11 25.9 -27.3 25.62 -27.3 L 19.46 -27.3 C 19.27 -27.3 19.07 -27.18 19.07 -26.95 L 17.55 -9.09 L 16.03 -26.95 C 16.03 -27.18 15.83 -27.3 15.64 -27.3 L 10.88 -27.3 C 10.69 -27.3 10.49 -27.18 10.49 -26.95 L 8.97 -9.09 L 7.45 -26.95 C 7.45 -27.18 7.25 -27.3 7.06 -27.3 L 0.9 -27.3 C 0.62 -27.3 0.43 -27.11 0.47 -26.83 L 4.64 -0.31 C 4.68 -0.12 4.8 0 4.99 0 L 11.74 0 C 11.93 0 12.09 -0.12 12.13 -0.35 L 13.26 -10.26 L 14.39 -0.35 C 14.43 -0.12 14.59 0 14.78 0 Z" stroke-linecap="round" />
</g>
</g>
</g>
<g transform="matrix(2.76086356290336 1.4039744776281167 -1.4039744776281167 2.76086356290336 376.56135553859684 1126.6161714834325)" id="tagline-330ed1b3-9702-4b58-9f70-5f9b95140489-logo-4"  >
<g style=""  paint-order="stroke"   >
		<g transform="matrix(1 0 0 1 0 0)" id="53ff3669-f122-4eae-a820-05f316d958d6-path-0"  >
<path style="stroke: none; stroke-width: 0; stroke-dasharray: none; stroke-linecap: butt; stroke-dashoffset: 0; stroke-linejoin: miter; stroke-miterlimit: 4; fill: rgb(106,63,191); fill-rule: nonzero; opacity: 1;"  paint-order="stroke"  transform=" translate(-8.385, 13.65)" d="M 5.46 0 L 11.31 0 C 11.54 0 11.7 -0.16 11.7 -0.39 L 11.7 -21.06 C 11.7 -21.29 11.86 -21.45 12.09 -21.45 L 15.6 -21.45 C 15.83 -21.45 15.99 -21.61 15.99 -21.84 L 15.99 -26.91 C 15.99 -27.14 15.83 -27.3 15.6 -27.3 L 1.17 -27.3 C 0.94 -27.3 0.78 -27.14 0.78 -26.91 L 0.78 -21.84 C 0.78 -21.61 0.94 -21.45 1.17 -21.45 L 4.68 -21.45 C 4.91 -21.45 5.07 -21.29 5.07 -21.06 L 5.07 -0.39 C 5.07 -0.16 5.23 0 5.46 0 Z" stroke-linecap="round" />
</g>
</g>
</g>
<g transform="matrix(2.92682133988905 1.01352296035593 -1.0135229603559297 2.9268213398890497 449.8252110663143 1157.753995598272)" id="tagline-330ed1b3-9702-4b58-9f70-5f9b95140489-logo-5"  >
<g style=""  paint-order="stroke"   >
		<g transform="matrix(1 0 0 1 0 0)" id="e2e23c54-69ee-42b6-ac43-e614eef2ecd5-path-0"  >
<path style="stroke: none; stroke-width: 0; stroke-dasharray: none; stroke-linecap: butt; stroke-dashoffset: 0; stroke-linejoin: miter; stroke-miterlimit: 4; fill: rgb(106,63,191); fill-rule: nonzero; opacity: 1;"  paint-order="stroke"  transform=" translate(-4.095, 13.65)" d="M 1.17 0 L 7.02 0 C 7.25 0 7.41 -0.16 7.41 -0.39 L 7.41 -26.91 C 7.41 -27.14 7.25 -27.3 7.02 -27.3 L 1.17 -27.3 C 0.94 -27.3 0.78 -27.14 0.78 -26.91 L 0.78 -0.39 C 0.78 -0.16 0.94 0 1.17 0 Z" stroke-linecap="round" />
</g>
</g>
</g>
<g transform="matrix(3.0479792162847303 0.5507582445092395 -0.5507582445092395 3.0479792162847303 536.6552888889996 1180.4844357972695)" id="tagline-330ed1b3-9702-4b58-9f70-5f9b95140489-logo-6"  >
<g style=""  paint-order="stroke"   >
		<g transform="matrix(1 0 0 1 0 0)" id="4a535764-fcc7-4f4f-87db-d1ef6687bd13-path-0"  >
<path style="stroke: none; stroke-width: 0; stroke-dasharray: none; stroke-linecap: butt; stroke-dashoffset: 0; stroke-linejoin: miter; stroke-miterlimit: 4; fill: rgb(106,63,191); fill-rule: nonzero; opacity: 1;"  paint-order="stroke"  transform=" translate(-11.309999999999999, 13.65)" d="M 9.67 0 L 12.95 0 C 13.1 0 13.26 -0.16 13.3 -0.31 L 15.21 -10.49 L 15.21 -0.39 C 15.21 -0.16 15.37 0 15.6 0 L 21.45 0 C 21.68 0 21.84 -0.16 21.84 -0.39 L 21.84 -26.91 C 21.84 -27.14 21.68 -27.3 21.45 -27.3 L 13.96 -27.3 C 13.77 -27.3 13.65 -27.18 13.61 -26.99 L 11.31 -12.4 L 9.01 -26.99 C 8.97 -27.18 8.85 -27.3 8.66 -27.3 L 1.17 -27.3 C 0.94 -27.3 0.78 -27.14 0.78 -26.91 L 0.78 -0.39 C 0.78 -0.16 0.94 0 1.17 0 L 7.02 0 C 7.25 0 7.41 -0.16 7.41 -0.39 L 7.41 -10.49 L 9.32 -0.31 C 9.36 -0.16 9.52 0 9.67 0 Z" stroke-linecap="round" />
</g>
</g>
</g>
<g transform="matrix(3.0973241023459015 0.009764825944908325 -0.009764825944908325 3.0973241023459015 638.1686321169935 1189.7481907597853)" id="tagline-330ed1b3-9702-4b58-9f70-5f9b95140489-logo-7"  >
<g style=""  paint-order="stroke"   >
		<g transform="matrix(1 0 0 1 0 0)" id="bdb486a2-5efb-491e-af0e-bd84250d7808-path-0"  >
<path style="stroke: none; stroke-width: 0; stroke-dasharray: none; stroke-linecap: butt; stroke-dashoffset: 0; stroke-linejoin: miter; stroke-miterlimit: 4; fill: rgb(106,63,191); fill-rule: nonzero; opacity: 1;"  paint-order="stroke"  transform=" translate(-7.605, 13.65)" d="M 1.17 0 L 14.04 0 C 14.27 0 14.43 -0.16 14.43 -0.39 L 14.43 -5.46 C 14.43 -5.69 14.27 -5.85 14.04 -5.85 L 7.8 -5.85 C 7.57 -5.85 7.41 -6.01 7.41 -6.24 L 7.41 -10.34 C 7.41 -10.57 7.57 -10.72 7.8 -10.72 L 13.26 -10.72 C 13.49 -10.72 13.65 -10.88 13.65 -11.12 L 13.65 -16.18 C 13.65 -16.42 13.49 -16.57 13.26 -16.57 L 7.8 -16.57 C 7.57 -16.57 7.41 -16.73 7.41 -16.96 L 7.41 -21.06 C 7.41 -21.29 7.57 -21.45 7.8 -21.45 L 14.04 -21.45 C 14.27 -21.45 14.43 -21.61 14.43 -21.84 L 14.43 -26.91 C 14.43 -27.14 14.27 -27.3 14.04 -27.3 L 1.17 -27.3 C 0.94 -27.3 0.78 -27.14 0.78 -26.91 L 0.78 -0.39 C 0.78 -0.16 0.94 0 1.17 0 Z" stroke-linecap="round" />
</g>
</g>
</g>
<g transform="matrix(0.9918075334054909 -0.12774120979588285 0.12774120979588288 0.991807533405491 354.5845873911407 456.0471679896074)" id="tagline-330ed1b3-9702-4b58-9f70-5f9b95140489-logo-8"  >
<g style=""  paint-order="stroke"   >
		<g transform="matrix(1 0 0 1 0 0)" id="6263ef3d-0aeb-4cb0-aecd-c41a0cadea2c-path-0"  >
<path style="stroke: none; stroke-width: 0; stroke-dasharray: none; stroke-linecap: butt; stroke-dashoffset: 0; stroke-linejoin: miter; stroke-miterlimit: 4; fill: rgb(106,63,191); fill-rule: nonzero; opacity: 1;"  paint-order="stroke"  transform=" translate(0, 0)" d="" stroke-linecap="round" />
</g>
</g>
</g>
<g transform="matrix(2.9900242835582462 -0.8082491760160206 0.8082491760160205 2.9900242835582462 791.6587971970338 1169.6118075530694)" id="tagline-330ed1b3-9702-4b58-9f70-5f9b95140489-logo-9"  >
<g style=""  paint-order="stroke"   >
		<g transform="matrix(1 0 0 1 0 0)" id="4e06761d-b75d-496b-82e9-98f7b1ccb7c5-path-0"  >
<path style="stroke: none; stroke-width: 0; stroke-dasharray: none; stroke-linecap: butt; stroke-dashoffset: 0; stroke-linejoin: miter; stroke-miterlimit: 4; fill: rgb(106,63,191); fill-rule: nonzero; opacity: 1;"  paint-order="stroke"  transform=" translate(-8.385, 13.65)" d="M 1.17 0 L 7.02 0 C 7.25 0 7.41 -0.16 7.41 -0.39 L 7.41 -8.78 C 7.41 -9.01 7.57 -9.16 7.8 -9.16 L 8.58 -9.16 C 9.01 -9.16 9.36 -8.81 9.36 -8.38 L 9.36 -0.39 C 9.36 -0.16 9.52 0 9.75 0 L 15.6 0 C 15.83 0 15.99 -0.16 15.99 -0.39 L 15.99 -7.72 C 15.99 -10.41 15.17 -12.21 13.26 -13.1 C 15.13 -13.96 15.99 -15.76 15.99 -18.45 L 15.99 -21.33 C 15.99 -25.23 14.16 -27.3 10.02 -27.3 L 1.56 -27.3 C 1.13 -27.3 0.78 -26.95 0.78 -26.52 L 0.78 -0.39 C 0.78 -0.16 0.94 0 1.17 0 Z M 8.58 -15.02 L 7.8 -15.02 C 7.57 -15.02 7.41 -15.17 7.41 -15.4 L 7.41 -21.06 C 7.41 -21.29 7.57 -21.45 7.8 -21.45 L 8.58 -21.45 C 9.09 -21.45 9.36 -21.22 9.36 -20.67 L 9.36 -15.79 C 9.36 -15.37 9.01 -15.02 8.58 -15.02 Z" stroke-linecap="round" />
</g>
</g>
</g>
<g transform="matrix(2.8195236193433226 -1.2821070574502382 1.2821070574502382 2.8195236193433226 880.5735364773948 1137.6176123915561)" id="tagline-330ed1b3-9702-4b58-9f70-5f9b95140489-logo-10"  >
<g style=""  paint-order="stroke"   >
		<g transform="matrix(1 0 0 1 0 0)" id="705fbc8a-1773-44c3-8589-acca1f5d1986-path-0"  >
<path style="stroke: none; stroke-width: 0; stroke-dasharray: none; stroke-linecap: butt; stroke-dashoffset: 0; stroke-linejoin: miter; stroke-miterlimit: 4; fill: rgb(106,63,191); fill-rule: nonzero; opacity: 1;"  paint-order="stroke"  transform=" translate(-8.385, 13.65)" d="M 6.75 0.39 L 10.02 0.39 C 14.16 0.39 15.99 -1.68 15.99 -5.58 L 15.99 -21.72 C 15.99 -25.62 14.16 -27.69 10.02 -27.69 L 6.75 -27.69 C 2.85 -27.69 0.78 -25.86 0.78 -21.72 L 0.78 -5.58 C 0.78 -1.44 2.85 0.39 6.75 0.39 Z M 8.58 -5.85 L 8.19 -5.85 C 7.76 -5.85 7.41 -6.2 7.41 -6.63 L 7.41 -20.67 C 7.41 -21.18 7.64 -21.45 8.19 -21.45 L 8.58 -21.45 C 9.09 -21.45 9.36 -21.22 9.36 -20.67 L 9.36 -6.63 C 9.36 -6.2 9.01 -5.85 8.58 -5.85 Z" stroke-linecap="round" />
</g>
</g>
</g>
<g transform="matrix(2.5744867086717553 -1.7220714659011822 1.7220714659011824 2.5744867086717558 963.1245674519778 1091.6399579699575)" id="tagline-330ed1b3-9702-4b58-9f70-5f9b95140489-logo-11"  >
<g style=""  paint-order="stroke"   >
		<g transform="matrix(1 0 0 1 0 0)" id="276387d8-0c5c-4458-80b4-30a0021b9279-path-0"  >
<path style="stroke: none; stroke-width: 0; stroke-dasharray: none; stroke-linecap: butt; stroke-dashoffset: 0; stroke-linejoin: miter; stroke-miterlimit: 4; fill: rgb(106,63,191); fill-rule: nonzero; opacity: 1;"  paint-order="stroke"  transform=" translate(-8.385, 13.65)" d="M 6.75 0.39 L 10.02 0.39 C 14.16 0.39 15.99 -1.68 15.99 -5.58 L 15.99 -21.72 C 15.99 -25.62 14.16 -27.69 10.02 -27.69 L 6.75 -27.69 C 2.85 -27.69 0.78 -25.86 0.78 -21.72 L 0.78 -5.58 C 0.78 -1.44 2.85 0.39 6.75 0.39 Z M 8.58 -5.85 L 8.19 -5.85 C 7.76 -5.85 7.41 -6.2 7.41 -6.63 L 7.41 -20.67 C 7.41 -21.18 7.64 -21.45 8.19 -21.45 L 8.58 -21.45 C 9.09 -21.45 9.36 -21.22 9.36 -20.67 L 9.36 -6.63 C 9.36 -6.2 9.01 -5.85 8.58 -5.85 Z" stroke-linecap="round" />
</g>
</g>
</g>
<g transform="matrix(2.271251965149188 -2.105926508120484 2.1059265081204837 2.2712519651491876 1035.1499456944287 1034.7428343354595)" id="tagline-330ed1b3-9702-4b58-9f70-5f9b95140489-logo-12"  >
<g style=""  paint-order="stroke"   >
		<g transform="matrix(1 0 0 1 0 0)" id="e8a7902d-44d1-4ff6-a70f-9848ffc7fe41-path-0"  >
<path style="stroke: none; stroke-width: 0; stroke-dasharray: none; stroke-linecap: butt; stroke-dashoffset: 0; stroke-linejoin: miter; stroke-miterlimit: 4; fill: rgb(106,63,191); fill-rule: nonzero; opacity: 1;"  paint-order="stroke"  transform=" translate(-7.605, 13.65)" d="M 1.17 0 L 7.02 0 C 7.25 0 7.41 -0.16 7.41 -0.39 L 7.41 -10.34 C 7.41 -10.57 7.57 -10.72 7.8 -10.72 L 13.26 -10.72 C 13.49 -10.72 13.65 -10.88 13.65 -11.12 L 13.65 -16.18 C 13.65 -16.42 13.49 -16.57 13.26 -16.57 L 7.8 -16.57 C 7.57 -16.57 7.41 -16.73 7.41 -16.96 L 7.41 -21.06 C 7.41 -21.29 7.57 -21.45 7.8 -21.45 L 14.04 -21.45 C 14.27 -21.45 14.43 -21.61 14.43 -21.84 L 14.43 -26.91 C 14.43 -27.14 14.27 -27.3 14.04 -27.3 L 1.17 -27.3 C 0.94 -27.3 0.78 -27.14 0.78 -26.91 L 0.78 -0.39 C 0.78 -0.16 0.94 0 1.17 0 Z" stroke-linecap="round" />
</g>
</g>
</g>
<g transform="matrix(1.9733355613669403 -2.387353913654866 2.3873539136548656 1.97333556136694 1087.9612414767091 978.8441280216438)" id="tagline-330ed1b3-9702-4b58-9f70-5f9b95140489-logo-13"  >
<g style=""  paint-order="stroke"   >
		<g transform="matrix(1 0 0 1 0 0)" id="c918b36d-d83a-4440-8a26-fd084f42666f-path-0"  >
<path style="stroke: none; stroke-width: 0; stroke-dasharray: none; stroke-linecap: butt; stroke-dashoffset: 0; stroke-linejoin: miter; stroke-miterlimit: 4; fill: rgb(106,63,191); fill-rule: nonzero; opacity: 1;"  paint-order="stroke"  transform=" translate(-4.095, 13.65)" d="M 1.17 0 L 7.02 0 C 7.25 0 7.41 -0.16 7.41 -0.39 L 7.41 -26.91 C 7.41 -27.14 7.25 -27.3 7.02 -27.3 L 1.17 -27.3 C 0.94 -27.3 0.78 -27.14 0.78 -26.91 L 0.78 -0.39 C 0.78 -0.16 0.94 0 1.17 0 Z" stroke-linecap="round" />
</g>
</g>
</g>
<g transform="matrix(1.6285841198813809 -2.6346206010104694 2.6346206010104702 1.628584119881381 1134.3561328634248 914.1515998002163)" id="tagline-330ed1b3-9702-4b58-9f70-5f9b95140489-logo-14"  >
<g style=""  paint-order="stroke"   >
		<g transform="matrix(1 0 0 1 0 0)" id="5f4367c8-7b3c-439a-b25d-d48be31d5ce3-path-0"  >
<path style="stroke: none; stroke-width: 0; stroke-dasharray: none; stroke-linecap: butt; stroke-dashoffset: 0; stroke-linejoin: miter; stroke-miterlimit: 4; fill: rgb(106,63,191); fill-rule: nonzero; opacity: 1;"  paint-order="stroke"  transform=" translate(-8.385, 13.65)" d="M 10.45 0 L 15.6 0 C 15.83 0 15.99 -0.16 15.99 -0.39 L 15.99 -26.91 C 15.99 -27.14 15.83 -27.3 15.6 -27.3 L 9.75 -27.3 C 9.52 -27.3 9.36 -27.14 9.36 -26.91 L 9.36 -15.37 L 6.71 -27.03 C 6.67 -27.18 6.47 -27.3 6.32 -27.3 L 1.17 -27.3 C 0.94 -27.3 0.78 -27.14 0.78 -26.91 L 0.78 -0.39 C 0.78 -0.16 0.94 0 1.17 0 L 7.02 0 C 7.25 0 7.41 -0.16 7.41 -0.39 L 7.41 -11.93 L 10.06 -0.27 C 10.1 -0.12 10.3 0 10.45 0 Z" stroke-linecap="round" />
</g>
</g>
</g>
<g transform="matrix(1.180110562047191 -2.86371280126748 2.8637128012674804 1.1801105620471912 1177.3400586908867 830.0034057861238)" id="tagline-330ed1b3-9702-4b58-9f70-5f9b95140489-logo-15"  >
<g style=""  paint-order="stroke"   >
		<g transform="matrix(1 0 0 1 0 0)" id="5602bb43-0d59-4f26-8c4a-db63111ba8cc-path-0"  >
<path style="stroke: none; stroke-width: 0; stroke-dasharray: none; stroke-linecap: butt; stroke-dashoffset: 0; stroke-linejoin: miter; stroke-miterlimit: 4; fill: rgb(106,63,191); fill-rule: nonzero; opacity: 1;"  paint-order="stroke"  transform=" translate(-8.385, 13.65)" d="M 6.75 0.39 L 10.02 0.39 C 14.16 0.39 15.99 -1.68 15.99 -5.58 L 15.99 -14.23 C 15.99 -14.47 15.83 -14.63 15.6 -14.63 L 8.78 -14.63 C 8.54 -14.63 8.38 -14.47 8.38 -14.23 L 8.38 -9.16 C 8.38 -8.93 8.54 -8.78 8.78 -8.78 L 8.97 -8.78 C 9.2 -8.78 9.36 -8.62 9.36 -8.38 L 9.36 -6.63 C 9.36 -6.2 9.01 -5.85 8.58 -5.85 L 8.19 -5.85 C 7.76 -5.85 7.41 -6.2 7.41 -6.63 L 7.41 -20.67 C 7.41 -21.18 7.64 -21.45 8.19 -21.45 L 8.58 -21.45 C 9.09 -21.45 9.36 -21.22 9.36 -20.67 L 9.36 -16.96 C 9.36 -16.73 9.52 -16.57 9.75 -16.57 L 15.6 -16.57 C 15.83 -16.57 15.99 -16.73 15.99 -16.96 L 15.99 -21.72 C 15.99 -25.62 14.16 -27.69 10.02 -27.69 L 6.75 -27.69 C 2.85 -27.69 0.78 -25.86 0.78 -21.72 L 0.78 -5.58 C 0.78 -1.44 2.85 0.39 6.75 0.39 Z" stroke-linecap="round" />
</g>
</g>
</g>
</svg>